<svg width="458" height="455" viewBox="0 0 458 455" fill="none" xmlns="http://www.w3.org/2000/svg">
<path d="M387.069 374.116C385.741 368.003 379.143 363.149 371.663 360.642C368.345 356.521 362.252 351.855 351.85 346.773C328.807 335.539 316.374 329.733 309.994 326.85C307.902 325.95 305.635 325.531 303.36 325.624C301.084 325.716 298.859 326.318 296.847 327.385L243.975 358.72C243.252 359.07 242.46 359.252 241.657 359.252C240.854 359.252 240.061 359.07 239.338 358.72C239.188 358.636 239.051 358.529 238.932 358.403C239.043 358.28 239.173 358.176 239.319 358.096C258.716 346.773 292.043 327.266 297.263 323.839C299.869 322.115 299.8 319.876 298.868 318.38C296.283 314.189 283.691 311.029 278.203 314.209L210.837 353.103C208.558 354.421 207.31 356.363 207.429 358.423C207.557 360.632 209.192 362.574 211.926 363.763C221.377 367.864 237.773 375.265 262.203 387.173C267.503 389.618 272.492 392.687 277.063 396.317C276.608 396.247 276.152 396.198 275.696 396.148C258.32 394.454 248.948 400.666 247.62 407.155C246.551 412.346 250.365 417.131 257.329 419.35C267.107 422.471 282.938 418.449 286.366 409.909C287.224 407.78 287.312 405.418 286.614 403.232C290.784 405.54 294.073 408.75 294.856 412.356C295.926 417.309 292.052 422.51 283.651 427.365C259.429 441.343 241.052 432.754 213.7 416.963C209.796 414.704 182.354 398.992 134.346 371.53C131.256 369.757 128.688 367.201 126.902 364.119C125.115 361.037 124.174 357.538 124.172 353.975V341.502C124.138 341.056 123.938 340.639 123.61 340.335C123.282 340.031 122.851 339.862 122.403 339.862C121.956 339.862 121.525 340.031 121.197 340.335C120.869 340.639 120.669 341.056 120.635 341.502V353.985C120.638 358.17 121.745 362.28 123.844 365.899C125.944 369.519 128.962 372.521 132.593 374.601C180.601 402.063 208.033 417.775 211.936 420.024C229.838 430.357 244.549 437.915 259.697 437.915C267.949 437.915 276.32 435.677 285.455 430.426C297.917 423.234 299.324 416.229 298.333 411.603C297.006 405.451 290.794 400.587 283.78 398.011C280.501 393.86 274.389 389.144 263.818 383.993C239.328 372.055 222.883 364.635 213.402 360.514C211.976 359.899 211.064 359.018 211.025 358.215C210.985 357.413 211.589 356.779 212.669 356.155L280.036 317.251C282.78 315.666 289.298 316.547 293.301 318.39C295.411 319.381 295.966 320.193 296.005 320.312C296.045 320.431 295.916 320.53 295.391 320.877C290.24 324.265 256.972 343.732 237.605 355.045C236.955 355.334 236.403 355.805 236.016 356.401C235.629 356.997 235.423 357.693 235.423 358.403C235.423 359.114 235.629 359.81 236.016 360.406C236.403 361.002 236.955 361.473 237.605 361.762C238.872 362.426 240.281 362.773 241.711 362.773C243.141 362.773 244.55 362.426 245.817 361.762L298.69 330.417C300.218 329.648 301.895 329.218 303.604 329.157C305.314 329.095 307.017 329.403 308.597 330.06C314.957 332.943 327.35 338.729 350.364 349.943C355.663 352.39 360.651 355.46 365.224 359.087C364.758 359.018 364.303 358.968 363.847 358.919C346.471 357.225 337.099 363.436 335.781 369.925C334.711 375.116 338.525 379.901 345.49 382.12C355.268 385.241 371.099 381.219 374.517 372.679C375.42 370.438 375.473 367.943 374.665 365.665C379.292 367.954 382.967 371.223 383.76 374.869C384.81 379.733 380.679 385.013 371.802 390.135L363.738 394.791C363.55 394.628 363.348 394.482 363.134 394.355C362.883 394.171 362.587 394.057 362.276 394.025C361.966 393.994 361.653 394.046 361.37 394.177L357.853 396.158C357.541 395.966 357.186 395.853 356.819 395.83C356.453 395.808 356.087 395.876 355.753 396.03L342.537 403.668C342.193 403.902 341.919 404.226 341.744 404.605C341.57 404.984 341.501 405.403 341.547 405.817C341.551 406.093 341.574 406.368 341.616 406.64L341.131 406.957L338.159 408.819L337.584 409.186L334.612 411.088L334.077 411.425L331.046 413.356L330.56 413.664L326.429 415.288C326.366 415.326 326.31 415.373 326.261 415.427L325.141 416.418C325.023 416.541 324.932 416.687 324.874 416.848C324.816 417.008 324.792 417.179 324.804 417.349C324.836 417.914 325 418.463 325.282 418.953C325.564 419.444 325.957 419.861 326.429 420.172C326.574 420.268 326.736 420.333 326.906 420.363C327.076 420.394 327.251 420.39 327.42 420.351L328.846 419.915C328.926 419.895 329.003 419.865 329.074 419.826L332.551 417.062L336.247 415.13L336.801 414.842L339.932 413.208L340.536 412.891L343.627 411.276L344.162 410.999C344.375 411.173 344.601 411.331 344.836 411.474C345.17 411.716 345.563 411.865 345.974 411.905C346.385 411.945 346.799 411.875 347.174 411.702L351.137 409.433L360.429 404.064C360.513 404.016 360.59 403.956 360.657 403.886C360.889 403.668 361.073 403.406 361.199 403.115C361.326 402.823 361.39 402.509 361.39 402.192L364.897 400.161C365.138 400.022 365.329 399.811 365.442 399.556C365.579 399.244 365.646 398.906 365.64 398.566C365.638 398.319 365.611 398.074 365.561 397.833C365.561 397.833 365.561 397.833 365.561 397.763L373.605 393.117C386.474 385.647 388.049 378.653 387.069 374.116Z" fill="#E0E0E0"/>
<path d="M259.607 432.744C244.46 432.744 229.748 425.185 211.847 414.852C206.893 411.989 165.968 388.57 132.503 369.43C128.872 367.35 125.854 364.348 123.755 360.728C121.655 357.108 120.548 352.998 120.546 348.814V336.272C120.579 335.826 120.78 335.409 121.108 335.104C121.436 334.8 121.867 334.631 122.314 334.631C122.762 334.631 123.192 334.8 123.52 335.104C123.848 335.409 124.049 335.826 124.082 336.272V348.814C124.085 352.375 125.027 355.872 126.813 358.953C128.6 362.033 131.167 364.588 134.257 366.359C167.722 385.509 208.657 408.958 213.61 411.791C240.983 427.593 259.34 436.172 283.562 422.193C291.963 417.339 295.837 412.148 294.767 407.185C293.984 403.588 290.705 400.369 286.524 398.06C287.22 400.251 287.132 402.615 286.277 404.748C282.859 413.277 267.018 417.299 257.24 414.189C250.305 411.97 246.461 407.175 247.531 401.993C248.869 395.495 258.221 389.283 275.607 390.987C276.063 390.987 276.518 391.086 276.984 391.155C272.409 387.529 267.421 384.456 262.124 382.002C237.704 370.113 221.308 362.703 211.847 358.592C209.113 357.413 207.478 355.461 207.349 353.252C207.22 351.043 208.479 349.289 210.757 347.932L278.123 309.038C283.612 305.868 296.203 309.038 298.789 313.209C299.72 314.724 299.78 316.953 297.184 318.667C291.983 322.085 258.647 341.602 239.239 352.935C239.095 353.013 238.965 353.113 238.853 353.232C238.968 353.361 239.106 353.468 239.259 353.549C239.982 353.899 240.774 354.081 241.577 354.081C242.38 354.081 243.173 353.899 243.895 353.549L296.768 322.204C298.78 321.14 301.006 320.539 303.28 320.447C305.555 320.354 307.822 320.772 309.914 321.669C316.284 324.552 328.737 330.347 351.77 341.592C362.212 346.684 368.305 351.36 371.584 355.461C379.024 357.968 385.662 362.822 386.989 368.944C387.98 373.482 386.405 380.466 373.347 388.005L357.566 397.119C357.16 397.353 356.678 397.416 356.225 397.294C355.773 397.173 355.387 396.876 355.154 396.47C354.92 396.064 354.857 395.582 354.978 395.13C355.1 394.677 355.397 394.292 355.802 394.058L371.584 384.944C380.5 379.822 384.592 374.552 383.542 369.687C382.749 366.032 379.074 362.753 374.447 360.484C375.255 362.762 375.202 365.256 374.298 367.498C370.881 376.028 355.05 380.05 345.272 376.939C338.337 374.72 334.493 369.925 335.563 364.744C336.9 358.245 346.252 352.033 363.629 353.737C364.085 353.737 364.54 353.836 365.006 353.896C360.433 350.269 355.445 347.199 350.146 344.752C327.122 333.537 314.729 327.752 308.379 324.879C306.801 324.215 305.098 323.903 303.387 323.962C301.676 324.022 299.999 324.453 298.472 325.226L245.599 356.571C244.332 357.235 242.923 357.582 241.493 357.582C240.063 357.582 238.653 357.235 237.387 356.571C236.753 356.257 236.214 355.779 235.828 355.186C235.441 354.594 235.22 353.909 235.187 353.202C235.219 352.501 235.436 351.82 235.817 351.23C236.199 350.639 236.73 350.161 237.357 349.844C270.822 330.308 291.339 318.142 295.143 315.675C295.668 315.329 295.757 315.111 295.757 315.111C295.757 315.111 295.163 314.12 293.053 313.189C289.09 311.346 282.532 310.474 279.788 312.06L212.421 350.954C211.342 351.578 210.737 352.331 210.777 353.014C210.816 353.698 211.768 354.698 213.155 355.313C222.645 359.444 239.1 366.864 263.57 378.792C274.141 383.943 280.253 388.698 283.532 392.82C290.546 395.386 296.758 400.25 298.085 406.402C299.076 411.009 297.659 418.013 285.207 425.225C276.231 430.505 267.86 432.744 259.607 432.744ZM269.98 394.226C258.627 394.226 251.91 398.189 250.989 402.707C250.295 406.055 253.109 409.166 258.31 410.82C266.364 413.386 280.303 410.137 282.997 403.43C283.919 401.132 283.364 398.566 281.452 395.851C279.445 395.168 277.368 394.713 275.26 394.494C273.398 394.316 271.634 394.226 269.98 394.226ZM358.081 356.977C346.738 356.977 340.021 360.94 339.1 365.457C338.406 368.806 341.21 371.916 346.421 373.571C354.475 376.137 368.414 372.887 371.108 366.18C372.04 363.852 371.455 361.227 369.484 358.493C367.492 357.876 365.445 357.458 363.371 357.244C361.509 357.066 359.745 356.977 358.081 356.977Z" fill="#455A64"/>
<path d="M361.231 388.986C361.515 388.857 361.827 388.806 362.137 388.837C362.447 388.869 362.743 388.981 362.995 389.164C363.721 389.637 364.325 390.275 364.759 391.026C365.193 391.776 365.444 392.618 365.491 393.483C365.524 393.796 365.473 394.112 365.342 394.398C365.212 394.683 365.006 394.929 364.748 395.108L354.772 400.864L351.255 394.742L361.231 388.986Z" fill="#37474F"/>
<path opacity="0.1" d="M365.194 391.968C365.376 392.453 365.476 392.965 365.491 393.483C365.525 393.796 365.473 394.112 365.342 394.398C365.212 394.683 365.007 394.929 364.748 395.108L354.772 400.864L353.524 398.694L365.194 391.968Z" fill="black"/>
<path d="M355.515 399.249C355.468 398.384 355.218 397.541 354.784 396.791C354.35 396.04 353.745 395.403 353.019 394.93C352.768 394.748 352.475 394.635 352.167 394.602C351.859 394.569 351.549 394.617 351.265 394.742C351.007 394.921 350.802 395.166 350.671 395.452C350.541 395.738 350.489 396.054 350.522 396.366C350.569 397.232 350.82 398.074 351.253 398.825C351.687 399.575 352.292 400.213 353.019 400.686C353.256 400.899 353.555 401.032 353.873 401.065C354.19 401.099 354.51 401.031 354.787 400.872C355.064 400.712 355.283 400.47 355.414 400.178C355.545 399.887 355.58 399.562 355.515 399.249Z" fill="#37474F"/>
<path d="M355.614 390.898C355.989 390.724 356.403 390.654 356.814 390.694C357.225 390.734 357.618 390.883 357.952 391.126C358.916 391.754 359.718 392.601 360.293 393.598C360.868 394.594 361.2 395.713 361.261 396.862C361.306 397.276 361.237 397.695 361.062 398.073C360.888 398.452 360.614 398.776 360.271 399.011L347.045 406.64L342.389 398.526L355.614 390.898Z" fill="#455A64"/>
<path opacity="0.1" d="M360.865 394.851C361.109 395.484 361.243 396.154 361.261 396.832C361.305 397.246 361.237 397.665 361.062 398.044C360.888 398.422 360.614 398.746 360.27 398.982L347.045 406.61L345.4 403.747L360.865 394.851Z" fill="black"/>
<path d="M348.026 404.5C347.965 403.352 347.634 402.235 347.059 401.239C346.484 400.244 345.681 399.399 344.717 398.774C344.408 398.47 344.009 398.277 343.58 398.222C343.151 398.167 342.716 398.254 342.341 398.469C341.966 398.685 341.672 399.017 341.503 399.416C341.335 399.814 341.301 400.257 341.408 400.676C341.472 401.824 341.804 402.942 342.379 403.938C342.954 404.934 343.755 405.782 344.717 406.412C345.026 406.717 345.426 406.912 345.857 406.967C346.288 407.023 346.725 406.935 347.1 406.718C347.476 406.5 347.771 406.166 347.938 405.765C348.105 405.364 348.136 404.92 348.026 404.5Z" fill="#37474F"/>
<path d="M344.717 400.418C344.529 400.28 344.308 400.196 344.076 400.173C343.844 400.151 343.61 400.191 343.399 400.289L330.441 408.532L326.31 410.147L328.955 414.753L332.433 411.989L346.045 404.906C346.237 404.773 346.391 404.591 346.489 404.378C346.586 404.165 346.624 403.93 346.599 403.697C346.566 403.041 346.378 402.402 346.051 401.832C345.724 401.262 345.267 400.778 344.717 400.418Z" fill="#66B933"/>
<path d="M327.628 410.285C327.439 410.149 327.218 410.064 326.987 410.04C326.756 410.016 326.522 410.052 326.31 410.147L326.142 410.285L325.052 411.326L327.33 415.288L328.757 414.862C328.837 414.84 328.914 414.806 328.985 414.763C329.178 414.629 329.332 414.445 329.43 414.23C329.528 414.016 329.565 413.779 329.54 413.545C329.501 412.889 329.307 412.252 328.975 411.685C328.643 411.119 328.181 410.639 327.628 410.285Z" fill="#66B933"/>
<path d="M327.955 414.149C327.922 413.583 327.758 413.033 327.474 412.542C327.19 412.052 326.795 411.635 326.32 411.326C326.164 411.189 325.969 411.104 325.763 411.084C325.557 411.064 325.349 411.109 325.17 411.213C324.99 411.317 324.848 411.474 324.763 411.663C324.678 411.852 324.654 412.063 324.695 412.267C324.726 412.832 324.889 413.381 325.172 413.872C325.454 414.362 325.847 414.779 326.32 415.09C326.475 415.231 326.671 415.319 326.88 415.342C327.088 415.364 327.299 415.32 327.48 415.215C327.662 415.111 327.806 414.951 327.891 414.759C327.976 414.568 327.999 414.354 327.955 414.149Z" fill="#66B933"/>
<path d="M330.441 408.532C330.6 408.46 330.776 408.431 330.95 408.448C331.124 408.465 331.29 408.528 331.432 408.631C331.84 408.899 332.18 409.259 332.424 409.683C332.669 410.106 332.811 410.58 332.839 411.068C332.859 411.244 332.833 411.422 332.761 411.584C332.69 411.746 332.576 411.886 332.432 411.989L332.948 411.722C333.089 411.612 333.201 411.468 333.272 411.304C333.343 411.139 333.371 410.959 333.354 410.781C333.326 410.29 333.184 409.813 332.937 409.388C332.691 408.963 332.349 408.602 331.937 408.334C331.794 408.235 331.629 408.172 331.456 408.152C331.284 408.131 331.109 408.153 330.946 408.215L330.441 408.532Z" fill="#66B933"/>
<path d="M333.968 406.293C334.14 406.215 334.33 406.184 334.518 406.203C334.705 406.222 334.885 406.291 335.038 406.402C335.485 406.694 335.858 407.088 336.124 407.551C336.391 408.014 336.545 408.533 336.573 409.067C336.593 409.256 336.564 409.446 336.487 409.62C336.411 409.794 336.29 409.945 336.137 410.058L336.692 409.76C336.843 409.645 336.963 409.495 337.041 409.322C337.119 409.149 337.152 408.959 337.138 408.77C337.107 408.238 336.953 407.721 336.686 407.26C336.419 406.799 336.048 406.406 335.603 406.115C335.446 406.001 335.263 405.928 335.071 405.904C334.878 405.88 334.683 405.904 334.503 405.976L333.968 406.293Z" fill="#66B933"/>
<path d="M337.475 404.054C337.662 403.971 337.867 403.938 338.07 403.959C338.274 403.98 338.468 404.053 338.634 404.173C339.118 404.489 339.521 404.915 339.81 405.416C340.099 405.917 340.267 406.478 340.298 407.056C340.321 407.262 340.289 407.47 340.205 407.659C340.122 407.849 339.99 408.013 339.823 408.136L340.427 407.819C340.595 407.69 340.726 407.52 340.809 407.326C340.893 407.131 340.925 406.919 340.903 406.709C340.871 406.132 340.704 405.57 340.415 405.069C340.125 404.568 339.723 404.142 339.238 403.826C339.068 403.704 338.87 403.628 338.662 403.604C338.454 403.579 338.243 403.608 338.05 403.687L337.475 404.054Z" fill="#66B933"/>
<path d="M340.992 401.815C341.193 401.726 341.414 401.692 341.633 401.714C341.852 401.737 342.061 401.816 342.24 401.944C342.762 402.284 343.196 402.741 343.507 403.28C343.819 403.819 343.999 404.423 344.033 405.045C344.058 405.269 344.022 405.495 343.929 405.7C343.837 405.906 343.692 406.083 343.508 406.214L344.172 405.867C344.351 405.729 344.492 405.547 344.58 405.339C344.669 405.131 344.702 404.903 344.677 404.678C344.644 404.058 344.465 403.454 344.155 402.915C343.846 402.376 343.414 401.918 342.894 401.577C342.71 401.444 342.496 401.359 342.271 401.331C342.045 401.304 341.817 401.334 341.606 401.419L340.992 401.815Z" fill="#66B933"/>
<g opacity="0.1">
<path d="M330.441 408.532C330.6 408.46 330.776 408.431 330.95 408.448C331.124 408.465 331.29 408.528 331.432 408.631C331.84 408.899 332.18 409.259 332.424 409.683C332.669 410.106 332.811 410.58 332.839 411.068C332.859 411.244 332.833 411.422 332.761 411.584C332.69 411.746 332.576 411.886 332.432 411.989L332.948 411.722C333.089 411.612 333.201 411.468 333.272 411.304C333.343 411.139 333.371 410.959 333.354 410.781C333.326 410.29 333.184 409.813 332.937 409.388C332.691 408.963 332.349 408.602 331.937 408.334C331.794 408.235 331.629 408.172 331.456 408.152C331.284 408.131 331.109 408.153 330.946 408.215L330.441 408.532Z" fill="black"/>
<path d="M333.968 406.293C334.14 406.215 334.33 406.184 334.518 406.203C334.705 406.222 334.885 406.291 335.038 406.402C335.485 406.694 335.858 407.088 336.124 407.551C336.391 408.014 336.545 408.533 336.573 409.067C336.593 409.256 336.564 409.446 336.487 409.62C336.411 409.794 336.29 409.945 336.137 410.058L336.692 409.76C336.843 409.645 336.963 409.495 337.041 409.322C337.119 409.149 337.152 408.959 337.138 408.77C337.107 408.238 336.953 407.721 336.686 407.26C336.419 406.799 336.048 406.406 335.603 406.115C335.446 406.001 335.263 405.928 335.071 405.904C334.878 405.88 334.683 405.904 334.503 405.976L333.968 406.293Z" fill="black"/>
<path d="M337.475 404.054C337.662 403.971 337.867 403.938 338.07 403.959C338.274 403.98 338.468 404.053 338.634 404.173C339.118 404.489 339.521 404.915 339.81 405.416C340.099 405.917 340.267 406.478 340.298 407.056C340.321 407.262 340.289 407.47 340.205 407.659C340.122 407.849 339.99 408.013 339.823 408.136L340.427 407.819C340.595 407.69 340.726 407.52 340.809 407.326C340.893 407.131 340.925 406.919 340.903 406.709C340.871 406.132 340.704 405.57 340.415 405.069C340.125 404.568 339.723 404.142 339.238 403.826C339.068 403.704 338.87 403.628 338.662 403.604C338.454 403.579 338.243 403.608 338.05 403.687L337.475 404.054Z" fill="black"/>
<path d="M340.992 401.815C341.193 401.726 341.414 401.692 341.633 401.714C341.852 401.737 342.061 401.816 342.24 401.944C342.762 402.284 343.196 402.741 343.507 403.28C343.819 403.819 343.999 404.423 344.033 405.045C344.058 405.269 344.022 405.495 343.929 405.7C343.837 405.906 343.692 406.083 343.508 406.214L344.172 405.867C344.351 405.729 344.492 405.547 344.58 405.339C344.669 405.131 344.702 404.903 344.677 404.678C344.644 404.058 344.465 403.454 344.155 402.915C343.846 402.376 343.414 401.918 342.894 401.577C342.71 401.444 342.496 401.359 342.271 401.331C342.045 401.304 341.817 401.334 341.606 401.419L340.992 401.815Z" fill="black"/>
</g>
<path d="M215.195 158.029C214.829 158.177 214.462 158.316 214.116 158.494C213.769 158.673 213.551 158.791 213.283 158.94C213.016 159.089 212.61 159.326 212.293 159.534C211.976 159.742 211.768 159.901 211.51 160.099C211.253 160.297 210.906 160.575 210.609 160.832C210.311 161.09 210.133 161.258 209.905 161.486C209.677 161.714 209.35 162.051 209.083 162.348C208.816 162.645 208.657 162.853 208.449 163.111C208.241 163.368 207.954 163.765 207.716 164.101C207.478 164.438 207.349 164.636 207.181 164.914L207.062 165.112C206.874 165.429 206.695 165.756 206.527 166.103C206.468 166.202 206.418 166.301 206.369 166.4C206.23 166.667 206.091 166.945 205.972 167.222C205.853 167.5 205.754 167.717 205.655 167.965C205.556 168.213 205.517 168.272 205.457 168.441L205.279 168.886C205.16 169.203 205.051 169.53 204.952 169.877C204.853 170.224 204.764 170.452 204.684 170.739C204.536 171.264 204.387 171.799 204.268 172.354C204.176 172.724 204.097 173.1 204.031 173.483C204.031 173.691 203.951 173.889 203.912 174.107C203.872 174.325 203.832 174.553 203.803 174.791C203.714 175.346 203.654 175.93 203.595 176.515C203.595 176.792 203.525 177.06 203.505 177.337C203.505 177.446 203.505 177.545 203.505 177.654C203.436 178.645 203.396 179.576 203.396 180.576C203.425 184.61 203.907 188.628 204.833 192.554C208.518 208.751 219.049 225.494 231.928 235.074C233.437 236.215 235.011 237.267 236.644 238.224L237.317 238.591C237.694 238.799 238.07 239.017 238.447 239.205L239.309 239.631L240.24 240.077L241.181 240.483L242.003 240.82C242.33 240.948 242.647 241.067 242.994 241.176L243.777 241.444L244.718 241.741L245.55 241.959L246.402 242.177L247.531 242.395L248.056 242.494L248.502 242.543L255.259 238.66C251.072 237.988 247.053 236.518 243.42 234.331C224.993 223.711 210.133 197.854 210.133 176.653C210.133 168.044 212.59 161.526 216.731 157.504L216.077 157.692C215.77 157.791 215.483 157.91 215.195 158.029Z" fill="#263238"/>
<path d="M221.159 150.856C220.13 151.215 219.136 151.666 218.187 152.203L211.461 156.087C214.422 154.412 217.757 153.509 221.159 153.462V150.856Z" fill="#37474F"/>
<path d="M248.066 242.494L247.541 242.395L246.412 242.177L245.56 241.959L245.005 241.82L244.728 241.741L243.816 241.444L243.034 241.176L242.043 240.82L241.221 240.483L240.28 240.077L239.348 239.631L238.487 239.205C238.11 239.017 237.724 238.799 237.337 238.581C237.129 238.462 236.911 238.363 236.693 238.234C235.12 237.308 233.599 236.296 232.136 235.203C227.942 232.078 224.14 228.459 220.813 224.424C217.939 220.961 215.36 217.263 213.105 213.368C209.38 206.982 206.607 200.087 204.873 192.901L204.813 192.564C203.889 188.644 203.407 184.633 203.377 180.606C203.377 179.675 203.377 178.773 203.476 177.882C203.476 177.753 203.476 177.624 203.476 177.495C203.471 177.406 203.471 177.317 203.476 177.228C203.535 176.485 203.615 175.752 203.724 175.039L203.783 174.583C203.783 174.345 203.872 174.127 203.912 173.889C203.951 173.652 204.041 173.236 204.11 172.899C204.179 172.562 204.249 172.205 204.328 171.908C204.407 171.611 204.526 171.195 204.635 170.838C204.635 170.699 204.704 170.561 204.744 170.432C204.784 170.303 204.744 170.323 204.794 170.273C204.883 169.986 204.972 169.689 205.071 169.402C205.17 169.114 205.328 168.728 205.467 168.411C205.606 168.094 205.804 167.549 206.002 167.133C206.2 166.717 206.289 166.558 206.438 166.271L206.616 165.934C206.775 165.637 206.943 165.35 207.112 165.062C207.28 164.775 207.439 164.557 207.607 164.309L207.835 163.983C207.954 163.794 208.083 163.616 208.211 163.448L208.518 163.061C208.608 162.952 208.687 162.833 208.786 162.724L209.331 162.1L209.519 161.912C209.747 161.674 209.975 161.437 210.222 161.209C210.331 161.11 210.46 161.02 210.569 160.931C210.866 160.674 211.164 160.426 211.471 160.198C211.778 159.97 211.986 159.812 212.253 159.633C212.521 159.455 212.907 159.227 213.244 159.039C213.581 158.851 213.789 158.732 214.076 158.593C214.363 158.455 214.789 158.276 215.156 158.128C215.523 157.979 215.731 157.89 216.028 157.791C216.325 157.692 216.474 157.652 216.701 157.583L217.207 157.454C217.504 157.385 217.801 157.295 218.108 157.236C218.415 157.177 218.98 157.097 219.416 157.048C219.852 156.998 220 156.959 220.308 156.939C220.615 156.919 220.843 156.939 221.12 156.939V153.61C217.718 153.657 214.383 154.56 211.421 156.235C211.005 156.483 210.599 156.741 210.193 157.018L209.985 157.157C208.827 157.982 207.761 158.928 206.805 159.98L206.478 160.337C206.19 160.664 205.913 161.001 205.636 161.328L205.398 161.674C204.939 162.292 204.512 162.934 204.12 163.596C203.981 163.844 203.833 164.092 203.694 164.349C203.555 164.607 203.347 165.003 203.179 165.34C203.01 165.677 202.862 166.023 202.703 166.33C202.545 166.638 202.406 167.024 202.267 167.381C202.049 167.935 201.851 168.51 201.663 169.094C201.584 169.372 201.495 169.659 201.415 169.946C201.277 170.442 201.148 170.937 201.019 171.462C200.96 171.72 200.9 171.967 200.851 172.225C200.686 172.978 200.547 173.751 200.435 174.543C200.435 174.741 200.385 174.939 200.365 175.128C200.276 175.801 200.207 176.475 200.157 177.109C200.157 177.357 200.157 177.604 200.108 177.852C200.048 178.734 200.018 179.625 200.018 180.537C200.099 186.414 201.037 192.248 202.802 197.854C203.709 200.823 204.787 203.738 206.032 206.582C206.692 208.022 207.353 209.445 208.013 210.852C210.157 215.081 212.645 219.127 215.453 222.948C221.031 230.527 227.757 236.956 234.989 241.127C237.861 242.836 240.941 244.168 244.153 245.09L248.473 242.613L248.066 242.494Z" fill="#455A64"/>
<path d="M281.967 208.86C281.967 189.483 268.365 165.924 251.583 156.235C243.162 151.381 235.554 150.935 230.056 154.135C228.381 155.126 217.177 161.575 215.463 162.536C209.935 165.696 206.547 172.512 206.547 182.231C206.547 201.609 220.149 225.167 236.931 234.856C245.332 239.71 252.94 240.156 258.439 236.966C260.123 235.975 271.416 229.496 273.111 228.515C278.569 225.345 281.967 218.539 281.967 208.86Z" fill="#66B933"/>
<path opacity="0.3" d="M281.967 208.86C281.967 189.483 268.365 165.924 251.583 156.235C243.162 151.381 235.554 150.935 230.056 154.135C228.381 155.126 217.177 161.575 215.463 162.536C209.935 165.696 206.547 172.512 206.547 182.231C206.547 201.609 220.149 225.167 236.931 234.856C245.332 239.71 252.94 240.156 258.439 236.966C260.123 235.975 271.416 229.496 273.111 228.515C278.569 225.345 281.967 218.539 281.967 208.86Z" fill="black"/>
<path d="M236.882 164.686C253.654 174.375 267.256 197.943 267.256 217.311C267.256 236.679 253.723 244.545 236.882 234.856C220.04 225.167 206.497 201.609 206.497 182.231C206.497 162.853 220.119 154.997 236.882 164.686Z" fill="#66B933"/>
<path d="M249.76 242.692H249.909C250.424 242.692 250.9 242.752 251.435 242.761H251.682C252.411 242.764 253.139 242.721 253.862 242.633H253.941C254.548 242.553 255.15 242.44 255.744 242.296C255.992 242.246 256.249 242.187 256.497 242.117C256.963 241.989 257.428 241.84 257.884 241.672C258.34 241.503 258.567 241.394 258.875 241.236C259.043 241.166 259.192 241.087 259.35 241.008C260.807 240.271 262.144 239.315 263.313 238.175C260.675 238.902 257.915 239.067 255.209 238.66L248.453 242.543C248.928 242.603 249.344 242.662 249.76 242.692Z" fill="#263238"/>
<path d="M245.094 158.94C245.267 161.537 246.388 163.981 248.245 165.805C262.718 179.11 273.299 200.707 273.299 219.005C273.299 232.32 267.711 241.791 258.577 244.971C259.744 244.59 260.865 244.078 261.916 243.445L268.643 239.562C275.795 235.44 280.055 226.683 280.055 215.102C280.055 196.814 269.465 175.207 254.991 161.912C253.14 160.084 252.019 157.642 251.841 155.047V128.09L245.094 131.994L241.766 130.072L245.094 131.994V158.94Z" fill="#37474F"/>
<path d="M248.245 165.805C246.388 163.981 245.267 161.537 245.094 158.94V131.994L241.766 130.072V160.555C241.774 160.961 241.821 161.366 241.904 161.763L241.964 162.061C242.058 162.484 242.181 162.901 242.33 163.309C242.572 163.94 242.867 164.55 243.212 165.132L243.489 165.538C243.747 165.948 244.039 166.336 244.361 166.697C244.557 166.923 244.769 167.135 244.995 167.331C245.798 168.034 246.58 168.768 247.353 169.511L247.967 170.115C248.641 170.789 249.305 171.472 249.949 172.185L250.246 172.492C250.979 173.295 251.692 174.117 252.405 174.969L252.94 175.623C253.525 176.336 254.099 177.069 254.654 177.803L255.06 178.338C255.724 179.219 256.368 180.131 256.992 181.042L257.428 181.706C257.943 182.469 258.419 183.251 258.924 184.034L259.34 184.708C259.925 185.698 260.479 186.629 261.024 187.61L261.331 188.195C261.777 189.017 262.213 189.849 262.629 190.691L263.016 191.474C263.504 192.471 263.97 193.482 264.412 194.505C264.462 194.644 264.521 194.773 264.571 194.912C264.957 195.813 265.324 196.725 265.681 197.646C265.78 197.923 265.889 198.191 265.988 198.468C266.374 199.459 266.741 200.558 267.067 201.599C267.394 202.639 267.702 203.699 267.979 204.749L268.157 205.423C268.415 206.413 268.653 207.463 268.861 208.484L268.95 208.999C269.135 209.937 269.293 210.868 269.425 211.793C269.425 211.961 269.475 212.139 269.505 212.308C269.633 213.299 269.742 214.289 269.812 215.28C269.812 215.498 269.812 215.716 269.861 215.934C269.921 216.924 269.97 217.975 269.97 218.975C269.97 224.919 268.791 229.873 266.681 233.746C266.229 234.576 265.715 235.37 265.146 236.124C264.868 236.49 264.581 236.847 264.284 237.184C263.986 237.521 263.679 237.838 263.362 238.175C262.193 239.315 260.857 240.271 259.4 241.008C259.251 241.087 259.093 241.166 258.924 241.236C258.597 241.394 258.26 241.543 257.933 241.672C257.606 241.8 257.081 241.969 256.655 242.088H256.546C256.299 242.157 256.051 242.217 255.794 242.266L255.348 242.385C254.902 242.474 254.446 242.543 253.99 242.603H253.911C253.188 242.691 252.46 242.734 251.732 242.732H251.167C250.771 242.732 250.365 242.732 249.958 242.662H249.76C249.344 242.662 248.928 242.583 248.502 242.524L244.183 245C246.579 245.691 249.059 246.051 251.553 246.07C251.89 246.07 252.217 246.07 252.544 246.021C252.871 245.971 253.446 246.021 253.862 245.951L254.625 245.842C255.11 245.773 255.615 245.704 256.041 245.615C256.269 245.615 256.497 245.515 256.725 245.456L257.002 245.377C257.428 245.268 257.854 245.169 258.27 245.03L258.567 244.941C267.702 241.791 273.289 232.29 273.289 218.975C273.299 200.707 262.718 179.11 248.245 165.805Z" fill="#455A64"/>
<path d="M229.947 157.474L230.086 157.414C230.166 157.385 230.243 157.345 230.313 157.296L237.07 153.392C237.505 153.115 237.856 152.726 238.088 152.266C238.32 151.805 238.424 151.291 238.387 150.777V120.294L231.641 124.197V154.68C231.689 155.265 231.551 155.85 231.247 156.352C230.943 156.853 230.488 157.246 229.947 157.474Z" fill="#37474F"/>
<path d="M221.803 153.452C223.425 153.458 225.043 153.611 226.638 153.907C226.834 153.961 227.04 153.967 227.24 153.925C227.439 153.884 227.625 153.796 227.784 153.668C227.942 153.54 228.068 153.377 228.152 153.191C228.235 153.006 228.273 152.803 228.263 152.6V149.568C225.839 149.597 223.438 150.032 221.159 150.856V153.491C221.377 153.481 221.585 153.452 221.803 153.452Z" fill="#37474F"/>
<path d="M222.655 156.8C223.458 156.83 224.258 156.903 225.053 157.018C225.826 157.137 226.618 157.295 227.411 157.494H227.559H227.639C227.893 157.555 228.151 157.598 228.411 157.622H228.481C228.695 157.643 228.91 157.643 229.125 157.622H229.243C229.445 157.589 229.644 157.54 229.838 157.474C230.379 157.246 230.834 156.853 231.138 156.352C231.442 155.85 231.58 155.265 231.532 154.68V124.197L228.203 122.216V152.55C228.214 152.753 228.176 152.956 228.092 153.142C228.009 153.328 227.883 153.491 227.725 153.619C227.566 153.746 227.38 153.834 227.18 153.876C226.981 153.918 226.775 153.911 226.579 153.858C224.984 153.561 223.366 153.409 221.744 153.402C221.526 153.402 221.318 153.402 221.1 153.402V156.731C221.338 156.731 221.566 156.731 221.803 156.731C222.041 156.731 222.388 156.79 222.655 156.8Z" fill="#455A64"/>
<path d="M278.857 227.287C278.857 198.656 258.756 163.884 233.959 149.529C221.576 142.376 210.371 141.702 202.257 146.378L188.695 154.205C180.591 158.9 175.568 168.936 175.568 183.241C175.568 211.872 195.669 246.645 220.456 261C232.84 268.143 244.044 268.826 252.158 264.15L265.71 256.304C273.834 251.638 278.857 241.592 278.857 227.287Z" fill="#66B933"/>
<path opacity="0.1" d="M252.203 264.141C269.735 254.019 269.734 221.195 252.201 190.827C234.668 160.459 206.242 144.047 188.711 154.169C171.179 164.291 171.18 197.114 188.713 227.482C206.246 257.85 234.671 274.263 252.203 264.141Z" fill="black"/>
<path d="M265.373 235.084C265.373 206.453 245.273 171.68 220.476 157.325C208.072 150.163 196.848 149.499 188.725 154.205L182.008 158.078C173.864 162.764 168.832 172.819 168.832 187.145C168.832 215.775 188.933 250.548 213.719 264.903C226.123 272.056 237.347 272.73 245.471 268.034L252.227 264.13C260.341 259.444 265.373 249.369 265.373 235.084Z" fill="#F0F0F0"/>
<path d="M213.719 161.199C238.486 175.514 258.617 210.327 258.617 238.957C258.617 267.588 238.516 279.189 213.719 264.873C188.923 250.558 168.832 215.746 168.832 187.115C168.832 158.484 188.933 146.913 213.719 161.199Z" fill="#E0E0E0"/>
<path d="M261.916 238.987C261.916 209.346 241.032 173.176 215.354 158.356C207.795 153.987 200.494 151.777 193.638 151.777C188.951 151.712 184.332 152.906 180.264 155.235C178.025 156.543 168.97 161.724 166.672 163.061C157.459 168.46 151.97 179.814 151.97 194.951C151.97 224.592 172.854 260.762 198.532 275.583C206.091 279.952 213.392 282.161 220.248 282.161C224.967 282.226 229.615 281.014 233.701 278.654C235.901 277.356 244.846 272.244 247.125 270.926C256.398 265.547 261.916 254.174 261.916 238.987Z" fill="#455A64"/>
<path d="M220.248 282.161C213.402 282.161 206.091 279.952 198.532 275.583C172.864 260.722 151.97 224.592 151.97 194.951C151.97 173.453 163.026 159.574 180.135 159.574C186.991 159.574 194.292 161.783 201.851 166.152C227.519 181.012 248.413 217.142 248.413 246.784C248.413 268.271 237.357 282.161 220.248 282.161Z" fill="#37474F"/>
<path d="M210.212 251.479C206.354 251.363 202.594 250.228 199.315 248.19C186.496 240.79 176.064 222.73 176.064 207.919C176.064 197.19 181.592 190.255 190.131 190.255C193.972 190.38 197.713 191.511 200.979 193.535C213.799 200.945 224.231 219.005 224.231 233.816C224.28 244.545 218.752 251.479 210.212 251.479Z" fill="#263238"/>
<path d="M152.951 301.875C152.951 272.234 132.068 236.064 106.389 221.234C98.8304 216.875 91.5291 214.666 84.6835 214.666C79.9961 214.598 75.3768 215.793 71.3093 218.123C69.0704 219.431 60.0057 224.612 57.7172 225.95C48.494 231.349 43.0056 242.702 43.0056 257.83C43.0056 287.471 63.8891 323.65 89.5676 338.471C97.1265 342.84 104.428 345.049 111.273 345.049C115.999 345.106 120.652 343.88 124.737 341.502C126.946 340.205 135.892 335.093 138.16 333.775C147.433 328.435 152.951 317.062 152.951 301.875Z" fill="#455A64"/>
<path d="M111.283 345.049C104.438 345.049 97.1362 342.84 89.5773 338.471C63.8989 323.611 43.0154 287.471 43.0154 257.83C43.0154 236.342 54.0714 222.462 71.1903 222.462C78.0359 222.462 85.3372 224.672 92.8961 229.031C118.565 243.891 139.458 280.031 139.458 309.672C139.448 331.16 128.392 345.049 111.283 345.049Z" fill="#37474F"/>
<path d="M136.13 309.672C136.13 281.041 116.029 246.268 91.2319 231.914C78.8286 224.751 67.6042 224.077 59.5302 228.783L52.8134 232.666C44.6799 237.352 39.6373 247.398 39.6373 261.723C39.6373 290.354 59.7382 325.127 84.5349 339.482C96.9382 346.644 108.153 347.308 116.237 342.622L122.993 338.719C131.107 334.023 136.13 323.977 136.13 309.672Z" fill="#F0F0F0"/>
<path d="M84.4853 235.807C109.252 250.122 129.383 284.935 129.383 313.565C129.383 342.196 109.282 353.797 84.4853 339.521C59.6885 325.245 39.5876 290.393 39.5876 261.763C39.5876 233.132 59.6885 221.492 84.4853 235.807Z" fill="#E0E0E0"/>
<path d="M129.383 313.565C129.383 284.935 109.282 250.162 84.4852 235.807C72.1017 228.654 60.8971 227.981 52.7834 232.657L39.221 240.453C31.1073 245.149 26.0846 255.194 26.0846 269.49C26.0846 298.121 46.1855 332.893 70.9822 347.248C83.3558 354.401 94.5604 355.075 102.684 350.399L116.227 342.582C124.35 337.926 129.383 327.881 129.383 313.565Z" fill="#66B933"/>
<path opacity="0.1" d="M70.9822 243.604C95.7492 257.919 115.87 292.731 115.87 321.362C115.87 349.993 95.7789 361.593 70.9822 347.278C46.1855 332.963 26.0846 298.15 26.0846 269.52C26.0846 240.889 46.1855 229.288 70.9822 243.604Z" fill="black"/>
<path d="M38.7455 259.9C38.379 260.039 38.0124 260.187 37.6558 260.356C37.2991 260.524 37.101 260.653 36.8335 260.812C36.566 260.97 36.1599 261.198 35.8428 261.406C35.5258 261.614 35.3178 261.773 35.0602 261.971C34.8026 262.169 34.4559 262.436 34.1587 262.694L33.4454 263.358C33.168 263.635 32.9005 263.922 32.633 264.22C32.3656 264.517 32.1971 264.725 31.9891 264.982C31.7811 265.24 31.5037 265.636 31.2659 265.973C31.0281 266.31 30.8993 266.518 30.7309 266.795L30.612 266.993C30.4238 267.31 30.2455 267.628 30.0672 267.984L29.9186 268.281C29.7799 268.549 29.6412 268.816 29.5124 269.094C29.3836 269.371 29.3044 269.589 29.2053 269.837C29.1062 270.084 29.0666 270.154 29.0071 270.312L28.8288 270.768C28.7099 271.085 28.601 271.412 28.492 271.759C28.383 272.105 28.3137 272.333 28.2344 272.621C28.0759 273.142 27.9372 273.677 27.8183 274.225C27.7292 274.602 27.6499 274.978 27.5806 275.365L27.4617 275.979C27.4617 276.207 27.3824 276.435 27.3527 276.662C27.2636 277.227 27.2041 277.802 27.1447 278.386C27.1447 278.664 27.0753 278.931 27.0555 279.218C27.0555 279.318 27.0555 279.427 27.0555 279.535C26.9862 280.477 26.9465 281.447 26.9465 282.458C26.9752 286.492 27.4571 290.509 28.383 294.435C32.0882 310.663 42.629 327.405 55.5276 336.985C57.0411 338.12 58.6153 339.172 60.2433 340.135L60.9169 340.502L62.0463 341.116L62.9082 341.542L63.8395 341.978C64.1565 342.127 64.4636 342.255 64.8301 342.384C65.1967 342.513 65.375 342.622 65.6524 342.721L66.6431 343.088L67.4158 343.355L68.4065 343.642L69.2387 343.87L70.0906 344.078C70.4671 344.167 70.8436 344.237 71.22 344.306L71.7352 344.405L72.181 344.455L78.7888 340.512C74.5835 339.851 70.5463 338.38 66.9007 336.183C48.5037 325.562 33.594 299.755 33.594 278.505C33.594 269.906 36.0509 263.387 40.1919 259.365C39.974 259.425 39.7461 259.474 39.5381 259.544L38.7455 259.9Z" fill="#263238"/>
<path d="M44.6896 252.728C43.6625 253.088 42.6682 253.535 41.7176 254.065L34.9908 257.949C37.9559 256.287 41.291 255.398 44.6896 255.363V252.728Z" fill="#37474F"/>
<path d="M71.5768 344.366L71.0616 344.267C70.6852 344.197 70.3186 344.128 69.9323 344.039C69.5459 343.949 69.3676 343.9 69.0803 343.831L68.5156 343.692L68.2481 343.603L67.2574 343.315L66.4649 343.048L65.4742 342.681C65.1968 342.582 64.9293 342.463 64.6519 342.345L63.6613 341.948L62.73 341.503L61.8681 341.077L60.7189 340.452L60.075 340.106C58.5037 339.176 56.9826 338.164 55.5179 337.074C51.3238 333.95 47.5218 330.331 44.1944 326.296C41.333 322.832 38.768 319.133 36.5265 315.24C32.7865 308.837 30.0029 301.921 28.2643 294.713C28.2643 294.604 28.2643 294.495 28.1949 294.376C27.3076 290.455 26.859 286.448 26.8575 282.428C26.8575 281.497 26.8575 280.596 26.9566 279.704C26.9566 279.575 26.9566 279.436 26.9566 279.308C26.952 279.219 26.952 279.129 26.9566 279.04C27.016 278.297 27.0953 277.574 27.2042 276.861L27.2637 276.405C27.2637 276.167 27.3528 275.939 27.3925 275.711C27.4321 275.484 27.5212 275.058 27.5807 274.721C27.6401 274.384 27.7194 274.027 27.8085 273.73C27.8977 273.433 28.0067 273.007 28.1057 272.65L28.2246 272.254C28.2291 272.201 28.2291 272.148 28.2246 272.095C28.3237 271.798 28.4129 271.511 28.5119 271.224C28.611 270.936 28.7695 270.54 28.8983 270.233C29.0271 269.926 29.245 269.371 29.4432 268.965C29.6413 268.559 29.7305 268.39 29.8791 268.103L30.0574 267.756C30.2159 267.469 30.3843 267.172 30.5527 266.894C30.7211 266.617 30.8797 266.389 31.0481 266.141L31.266 265.805L31.8109 265.22L32.1081 264.844C32.2072 264.735 32.2864 264.616 32.3855 264.507C32.4846 264.398 32.7421 264.091 32.9304 263.883L33.1087 263.695L33.8121 262.991C33.921 262.892 34.0498 262.813 34.1588 262.714C34.456 262.456 34.7532 262.218 35.0603 261.991C35.3674 261.763 35.5755 261.604 35.843 261.426C36.1104 261.248 36.4968 261.02 36.8336 260.831C37.1705 260.643 37.3785 260.514 37.6559 260.376C37.9333 260.237 38.3791 260.059 38.7457 259.92L39.6175 259.573L40.2911 259.375L40.727 259.276C41.0242 259.197 41.3214 259.118 41.6285 259.058C41.9356 258.999 42.4904 258.919 42.9362 258.87C43.2334 258.87 43.5207 258.781 43.8278 258.751C44.135 258.721 44.3628 258.751 44.6402 258.751V255.422C41.2382 255.47 37.9028 256.372 34.9414 258.048C34.5154 258.285 34.1093 258.553 33.713 258.82L33.505 258.969C32.3438 259.793 31.2743 260.74 30.315 261.792L29.9979 262.149C29.7106 262.476 29.4333 262.813 29.1559 263.14C29.0766 263.249 28.9974 263.368 28.9082 263.477C28.4624 264.091 28.0364 264.735 27.6401 265.458L27.2141 266.201C27.0358 266.528 26.8674 266.865 26.699 267.192C26.5306 267.519 26.382 267.875 26.2235 268.232C26.0649 268.588 25.9263 268.915 25.7876 269.282C25.5696 269.837 25.3715 270.401 25.1832 270.986C25.0941 271.263 25.0148 271.551 24.9356 271.838C24.7969 272.343 24.6582 272.829 24.5393 273.364L24.361 274.126C24.2025 274.879 24.0638 275.652 23.9548 276.445C23.9548 276.633 23.9548 276.841 23.8855 277.029C23.7963 277.693 23.7269 278.367 23.6774 279.01L23.618 279.753C23.5684 280.635 23.5288 281.527 23.5288 282.438C23.599 288.304 24.5268 294.128 26.2829 299.726C27.1893 302.692 28.2677 305.603 29.5125 308.444C30.1399 309.877 30.8004 311.3 31.4939 312.713C33.6329 316.945 36.1216 320.992 38.9339 324.81C44.5114 332.388 51.2381 338.818 58.4701 342.998C61.3457 344.7 64.4247 346.031 67.6339 346.961L71.9532 344.475L71.5768 344.366Z" fill="#455A64"/>
<path d="M101.366 312.981C101.366 293.613 87.7643 270.045 70.9822 260.356C62.5614 255.502 54.953 255.056 49.4548 258.266L34.862 266.657C29.334 269.817 25.9459 276.643 25.9459 286.351C25.9459 305.729 39.548 329.287 56.3301 338.976C64.731 343.831 72.3395 344.286 77.8377 341.086L92.5097 332.646C97.9683 329.466 101.366 322.68 101.366 312.981Z" fill="#66B933"/>
<path opacity="0.3" d="M101.366 312.981C101.366 293.613 87.7643 270.045 70.9822 260.356C62.5614 255.502 54.953 255.056 49.4548 258.266L34.862 266.657C29.334 269.817 25.9459 276.643 25.9459 286.351C25.9459 305.729 39.548 329.287 56.3301 338.976C64.731 343.831 72.3395 344.286 77.8377 341.086L92.5097 332.646C97.9683 329.466 101.366 322.68 101.366 312.981Z" fill="black"/>
<path d="M77.7788 341.101C89.6436 334.251 89.6437 312.038 77.7791 291.488C65.9144 270.938 46.6778 259.832 34.813 266.682C22.9482 273.532 22.9481 295.745 34.8127 316.295C46.6774 336.845 65.914 347.951 77.7788 341.101Z" fill="#66B933"/>
<path d="M72.0794 334.975C81.3283 329.66 81.3611 312.362 72.1528 296.34C62.9445 280.317 47.982 271.637 38.7331 276.953C29.4843 282.268 29.4514 299.566 38.6597 315.589C47.868 331.611 62.8305 340.291 72.0794 334.975Z" fill="#263238"/>
<path d="M68.0103 291.305L54.0615 305.234L37.4082 276.375C41.6582 273.899 47.5627 274.255 54.0615 278.01C59.5953 281.41 64.3486 285.94 68.0103 291.305Z" fill="#455A64"/>
<path d="M77.6495 318.865C77.6495 326.375 75.0044 331.665 70.7147 334.102L54.0614 305.234L68.0102 291.305C73.8453 299.636 77.6495 309.801 77.6495 318.865Z" fill="#37474F"/>
<path d="M70.7347 334.102C66.4847 336.549 60.5406 336.232 54.0615 332.477C48.5182 329.088 43.768 324.548 40.1326 319.163L54.0615 305.234L70.7347 334.102Z" fill="#455A64"/>
<path d="M54.0614 305.234L40.1325 319.163C34.2776 310.841 30.4932 300.647 30.4932 291.642C30.4932 284.112 33.1383 278.842 37.4279 276.375L54.0614 305.234Z" fill="#37474F"/>
<path d="M73.2807 344.564H73.4193C73.9345 344.564 74.41 344.623 74.945 344.623H75.1927C75.9357 344.623 76.6589 344.574 77.3722 344.494H77.4514C78.0583 344.421 78.6604 344.312 79.2545 344.167C79.5021 344.108 79.7597 344.058 80.0074 343.989C80.473 343.86 80.9386 343.702 81.3844 343.533C81.8302 343.365 82.0779 343.256 82.3751 343.107L82.8506 342.87C84.3097 342.139 85.6465 341.187 86.8133 340.046C84.1751 340.77 81.4143 340.932 78.7096 340.522L71.9432 344.415C72.4287 344.475 72.8646 344.534 73.2807 344.564Z" fill="#263238"/>
<path d="M68.6144 260.812C68.7886 263.409 69.9095 265.851 71.7647 267.677C86.2287 280.972 96.819 302.579 96.819 320.867C96.819 334.191 91.2316 343.652 82.0975 346.832C83.2653 346.458 84.3856 345.949 85.4361 345.317L92.1628 341.433C99.3155 337.312 103.575 328.554 103.575 316.973C103.575 298.685 92.9851 277.079 78.5113 263.784C76.6721 261.951 75.5659 259.509 75.4005 256.918V229.962L68.654 233.865L65.3253 231.943L68.654 233.865L68.6144 260.812Z" fill="#37474F"/>
<path d="M71.7647 267.677C69.9095 265.851 68.7885 263.409 68.6143 260.812V233.865L65.2856 231.943V262.426C65.2944 262.829 65.3408 263.231 65.4243 263.625L65.4838 263.932C65.5785 264.356 65.7009 264.773 65.8503 265.181C66.0898 265.81 66.3849 266.417 66.732 266.993C66.8212 267.142 66.9104 267.271 67.0094 267.41C67.2669 267.817 67.5551 268.205 67.8713 268.569C68.0734 268.792 68.2884 269.004 68.5153 269.203C69.3177 269.896 70.1003 270.629 70.8731 271.382L71.4873 271.986C72.161 272.66 72.8247 273.344 73.4687 274.047L73.7659 274.364C74.499 275.167 75.2123 275.989 75.9156 276.831C76.1039 277.049 76.2822 277.277 76.4605 277.495C77.045 278.208 77.6196 278.931 78.1744 279.674C78.3131 279.852 78.4518 280.021 78.5806 280.199C79.2443 281.091 79.8784 281.992 80.5619 282.914L80.9978 283.577C81.513 284.34 81.9885 285.113 82.4938 285.896L82.9098 286.579C83.4943 287.57 84.0491 288.501 84.594 289.472L84.9011 290.066C85.3469 290.889 85.7828 291.721 86.1989 292.563L86.5853 293.336C87.0707 294.326 87.5759 295.317 87.9722 296.377C88.0317 296.506 88.0911 296.645 88.1406 296.773C88.5303 297.685 88.8968 298.596 89.2403 299.508C89.3493 299.785 89.4582 300.062 89.5573 300.34C89.9338 301.38 90.3102 302.42 90.6371 303.47C90.9641 304.52 91.2613 305.571 91.5486 306.621C91.608 306.839 91.6674 307.066 91.717 307.294C91.9878 308.311 92.2255 309.332 92.4303 310.356L92.5194 310.871C92.7077 311.802 92.8563 312.733 92.995 313.664C92.995 313.833 92.995 314.001 93.0643 314.17C93.203 315.16 93.3021 316.151 93.3813 317.142C93.3813 317.36 93.3813 317.578 93.3813 317.796C93.4408 318.786 93.4903 319.826 93.4903 320.827C93.4903 326.771 92.3114 331.774 90.2012 335.608C89.7487 336.437 89.2354 337.232 88.6657 337.986C88.3883 338.352 88.101 338.709 87.8038 339.046C87.5066 339.382 87.1995 339.699 86.8825 340.036C85.7157 341.177 84.3788 342.129 82.9197 342.86L82.4442 343.097C82.1074 343.246 81.7706 343.395 81.4535 343.523C81.1365 343.652 80.6115 343.831 80.1855 343.949H80.0765C79.8288 344.019 79.5712 344.068 79.3236 344.128L78.8778 344.237C78.432 344.326 77.9763 344.405 77.5205 344.455H77.3818C76.6583 344.538 75.9307 344.581 75.2024 344.583H74.6377C74.2414 344.583 73.8352 344.584 73.429 344.514H73.2804C72.8643 344.514 72.4383 344.425 72.0223 344.366L67.7029 346.852C70.0994 347.544 72.5793 347.904 75.0736 347.922C75.4104 347.922 75.7373 347.922 76.0642 347.922C76.3912 347.922 76.9658 347.922 77.3818 347.853L78.1447 347.744C78.6301 347.674 79.1354 347.605 79.5514 347.516L80.2449 347.357L80.5223 347.278C80.9483 347.169 81.3743 347.06 81.7904 346.931L82.0876 346.832C91.2216 343.692 96.8091 334.191 96.8091 320.867C96.819 302.579 86.2286 280.972 71.7647 267.677Z" fill="#455A64"/>
<path d="M53.4077 259.345L53.6058 259.276L53.8337 259.157L60.5406 255.313C60.9753 255.036 61.3272 254.647 61.5591 254.187C61.791 253.727 61.8944 253.212 61.8582 252.698V222.165L55.1117 226.069V256.542C55.1612 257.129 55.0228 257.717 54.7166 258.221C54.4104 258.725 53.952 259.119 53.4077 259.345Z" fill="#37474F"/>
<path d="M45.3237 255.313C46.9459 255.315 48.5644 255.468 50.1583 255.769C50.3545 255.82 50.5599 255.825 50.7582 255.782C50.9565 255.74 51.142 255.652 51.3 255.524C51.4579 255.397 51.5839 255.235 51.6678 255.05C51.7517 254.866 51.7911 254.664 51.783 254.461V251.43C49.3588 251.448 46.9559 251.883 44.6798 252.718V255.353C44.8978 255.313 45.1058 255.313 45.3237 255.313Z" fill="#37474F"/>
<path d="M46.1757 258.662C46.9583 258.662 47.7608 258.771 48.5731 258.89C49.3668 259.007 50.1538 259.166 50.931 259.365C50.977 259.36 51.0236 259.36 51.0697 259.365H51.1588C51.4153 259.431 51.6773 259.474 51.9414 259.494H52.0108C52.2252 259.509 52.4404 259.509 52.6547 259.494H52.7736C52.9764 259.466 53.1757 259.416 53.368 259.345C53.9124 259.119 54.3707 258.725 54.6769 258.221C54.9831 257.717 55.1215 257.129 55.072 256.542V226.068L51.7433 224.087V254.432C51.7514 254.634 51.712 254.836 51.6281 255.021C51.5442 255.205 51.4183 255.368 51.2603 255.495C51.1023 255.622 50.9168 255.71 50.7185 255.753C50.5202 255.795 50.3148 255.791 50.1186 255.739C48.5247 255.438 46.9062 255.285 45.2841 255.284C45.0661 255.284 44.8581 255.284 44.6401 255.284V258.612H45.3435C45.6804 258.672 45.9082 258.652 46.1757 258.662Z" fill="#455A64"/>
<path d="M57.2216 207.464C55.9932 206.76 54.309 206.859 52.4465 207.939C50.4728 209.216 48.8303 210.944 47.654 212.98C46.4778 215.015 45.8013 217.301 45.6802 219.649C45.6802 221.818 46.443 223.344 47.6615 224.038L74.6477 239.611L84.1582 223.057L57.2216 207.464Z" fill="#66B933"/>
<path opacity="0.3" d="M57.2216 207.464C55.9932 206.76 54.309 206.859 52.4465 207.939C50.4728 209.216 48.8303 210.944 47.654 212.98C46.4778 215.015 45.8013 217.301 45.6802 219.649C45.6802 221.818 46.443 223.344 47.6615 224.038L74.6477 239.611L84.1582 223.057L57.2216 207.464Z" fill="black"/>
<path opacity="0.3" d="M46.5024 215.538C45.9905 216.85 45.7122 218.241 45.6802 219.649C45.6802 221.818 46.443 223.344 47.6615 224.038L74.6477 239.611L78.0061 233.766L46.5024 215.538Z" fill="black"/>
<path d="M72.6962 235.222C72.8193 232.879 73.4957 230.598 74.67 228.566C75.8444 226.534 77.4833 224.809 79.4526 223.532C81.2953 222.462 82.9695 222.353 84.1881 223.037C85.4066 223.721 86.1694 225.256 86.1694 227.426C86.0427 229.769 85.3659 232.049 84.1938 234.082C83.0216 236.114 81.3872 237.842 79.4229 239.126C77.5505 240.196 75.8663 240.305 74.6478 239.591C73.4293 238.878 72.6962 237.382 72.6962 235.222Z" fill="#66B933"/>
<path opacity="0.2" d="M72.6962 235.222C72.8193 232.879 73.4957 230.598 74.67 228.566C75.8444 226.534 77.4833 224.809 79.4526 223.532C81.2953 222.462 82.9695 222.353 84.1881 223.037C85.4066 223.721 86.1694 225.256 86.1694 227.426C86.0427 229.769 85.3659 232.049 84.1938 234.082C83.0216 236.114 81.3872 237.842 79.4229 239.126C77.5505 240.196 75.8663 240.305 74.6478 239.591C73.4293 238.878 72.6962 237.382 72.6962 235.222Z" fill="black"/>
<path d="M75.6187 233.518C75.6909 232.189 76.0758 230.894 76.7419 229.741C77.4081 228.588 78.3368 227.608 79.4527 226.881C79.8189 226.556 80.2783 226.354 80.7656 226.305C81.2529 226.257 81.7431 226.363 82.1667 226.608C82.5903 226.854 82.9255 227.227 83.1248 227.675C83.3241 228.122 83.3772 228.621 83.2767 229.1C83.204 230.427 82.82 231.719 82.1557 232.87C81.4914 234.022 80.5654 235 79.4527 235.728C79.0856 236.049 78.6273 236.247 78.1419 236.295C77.6565 236.343 77.1684 236.237 76.7458 235.994C76.3232 235.75 75.9873 235.381 75.7852 234.937C75.5831 234.493 75.5249 233.997 75.6187 233.518Z" fill="#37474F"/>
<path d="M81.4834 228.109C81.5025 227.512 81.3623 226.921 81.0773 226.395C80.5026 226.429 79.9448 226.602 79.4526 226.901C78.3367 227.628 77.4079 228.608 76.7418 229.761C76.0757 230.914 75.6908 232.208 75.6186 233.538C75.6047 234.135 75.7446 234.725 76.0248 235.252C76.6027 235.219 77.1638 235.046 77.6594 234.747C78.7735 234.019 79.7003 233.038 80.3647 231.885C81.029 230.732 81.4123 229.438 81.4834 228.109Z" fill="#263238"/>
<path d="M232.76 106.117C231.542 105.414 229.848 105.513 227.985 106.593C226.019 107.873 224.383 109.598 223.209 111.63C222.035 113.661 221.357 115.94 221.229 118.283C221.229 120.452 222.001 121.968 223.21 122.671L250.186 138.245L259.707 121.69L232.76 106.117Z" fill="#66B933"/>
<path opacity="0.3" d="M232.76 106.117C231.542 105.414 229.848 105.513 227.985 106.593C226.019 107.873 224.383 109.598 223.209 111.63C222.035 113.661 221.357 115.94 221.229 118.283C221.229 120.452 222.001 121.968 223.21 122.671L250.186 138.245L259.707 121.69L232.76 106.117Z" fill="black"/>
<path opacity="0.3" d="M222.021 114.181C221.52 115.492 221.245 116.879 221.209 118.283C221.209 120.452 221.982 121.968 223.19 122.671L250.167 138.245L253.535 132.39L222.021 114.181Z" fill="black"/>
<path d="M248.245 133.876C248.371 131.533 249.048 129.253 250.22 127.22C251.392 125.187 253.027 123.459 254.991 122.176C256.844 121.116 258.518 121.007 259.737 121.69C260.955 122.374 261.718 123.91 261.718 126.079C261.595 128.423 260.918 130.704 259.744 132.736C258.57 134.768 256.931 136.493 254.961 137.769C253.099 138.849 251.415 138.948 250.186 138.245C248.958 137.541 248.245 136.026 248.245 133.876Z" fill="#66B933"/>
<path opacity="0.2" d="M248.245 133.876C248.371 131.533 249.048 129.253 250.22 127.22C251.392 125.187 253.027 123.459 254.991 122.176C256.844 121.116 258.518 121.007 259.737 121.69C260.955 122.374 261.718 123.91 261.718 126.079C261.595 128.423 260.918 130.704 259.744 132.736C258.57 134.768 256.931 136.493 254.961 137.769C253.099 138.849 251.415 138.948 250.186 138.245C248.958 137.541 248.245 136.026 248.245 133.876Z" fill="black"/>
<path d="M251.167 132.192C251.238 130.863 251.621 129.569 252.286 128.416C252.95 127.263 253.877 126.282 254.991 125.554C255.377 125.277 255.829 125.105 256.302 125.057C256.774 125.008 257.251 125.084 257.686 125.277C258.082 125.55 258.397 125.926 258.597 126.363C258.798 126.801 258.876 127.285 258.825 127.763C258.754 129.094 258.37 130.388 257.704 131.542C257.038 132.695 256.108 133.675 254.991 134.401C254.625 134.725 254.167 134.925 253.681 134.974C253.195 135.023 252.706 134.918 252.283 134.673C251.861 134.429 251.525 134.058 251.325 133.613C251.125 133.167 251.069 132.67 251.167 132.192Z" fill="#37474F"/>
<path d="M257.032 126.763C257.046 126.166 256.906 125.576 256.626 125.049C256.048 125.082 255.487 125.255 254.991 125.554C253.876 126.282 252.948 127.262 252.282 128.415C251.615 129.568 251.23 130.862 251.157 132.192C251.141 132.79 251.285 133.381 251.573 133.906C252.148 133.872 252.706 133.699 253.198 133.4C254.313 132.673 255.242 131.693 255.908 130.539C256.574 129.386 256.959 128.092 257.032 126.763Z" fill="#263238"/>
<path d="M253.535 49.8464L224.409 33.0048C222.544 29.4516 220.306 26.1074 217.732 23.0287C233.365 25.7531 245.728 35.224 253.535 49.8464Z" fill="#66B933"/>
<path opacity="0.2" d="M253.535 49.8464L224.409 33.0048C222.544 29.4516 220.306 26.1074 217.732 23.0287C233.365 25.7531 245.728 35.224 253.535 49.8464Z" fill="black"/>
<path d="M248.145 122.344C249.627 114.468 250.393 106.474 250.434 98.459C250.434 44.2787 212.402 22.3154 165.483 49.4105C118.565 76.5056 80.5224 142.376 80.5224 196.556C80.4766 203.707 81.2478 210.84 82.8208 217.816L71.8639 224.147C70.4998 217.083 69.8361 209.902 69.8825 202.708C69.8825 141.732 112.7 67.5696 165.513 37.0864C218.326 6.60318 261.133 31.3107 261.133 92.297C261.116 100.263 260.454 108.214 259.152 116.073L248.254 122.384" fill="#37474F"/>
<path d="M248.155 122.344C249.629 114.464 250.392 106.466 250.434 98.4491C250.434 62.7153 233.889 40.9897 209.152 38.1266C216.889 48.4495 221.328 63.1809 221.328 81.7166C221.28 89.7106 220.518 97.6843 219.049 105.542L248.155 122.344Z" fill="#263238"/>
<path d="M231.363 29.4384C214.205 20.5223 191.013 22.3649 165.483 37.1062C112.66 67.5696 69.8528 141.722 69.8528 202.718C69.8058 209.906 70.4695 217.08 71.8341 224.137L42.7775 207.355C41.3837 200.311 40.6968 193.146 40.7268 185.966C40.7268 124.98 83.534 50.8271 136.357 20.334C162.739 5.09737 186.614 3.66088 203.921 13.637C208.36 16.1534 224.696 25.5945 231.363 29.4384Z" fill="#455A64"/>
<path d="M56.9938 199.053C56.1838 199.024 55.3952 198.785 54.7054 198.359C53.2879 197.434 52.1069 196.189 51.257 194.725C50.4072 193.261 49.9121 191.618 49.8114 189.928C49.8114 187.67 50.9804 186.213 52.7834 186.213C53.5927 186.238 54.3815 186.474 55.0719 186.897C56.4926 187.831 57.6751 189.084 58.5249 190.557C59.3747 192.029 59.8682 193.68 59.9659 195.377C59.956 197.586 58.787 199.053 56.9938 199.053Z" fill="#263238"/>
<path d="M235.683 23.5834C227.224 19.0461 217.75 16.7347 208.152 16.8666C193.559 16.8666 177.996 21.5823 161.877 30.8748C124.578 52.4023 92.0342 95.0709 75.0936 140.058L45.9874 123.216C62.9281 78.2293 95.5214 35.5608 132.771 14.0333C148.889 4.74071 164.473 0.00526462 179.046 0.00526462C189.009 -0.130948 198.831 2.37824 207.508 7.27685C212.115 9.99132 229.521 20.017 235.683 23.5834Z" fill="#66B933"/>
<path d="M253.525 49.8365C244.193 32.4104 228.352 22.2361 208.152 22.2361C194.51 22.2361 179.838 26.7041 164.562 35.531C128.006 56.6325 96.1357 98.6175 79.7498 142.752L75.0936 140.058C92.0343 95.0709 124.578 52.4023 161.877 30.8748C177.996 21.5823 193.579 16.8666 208.152 16.8666C229.412 16.8666 246.303 26.9121 256.695 44.358L253.525 49.8365Z" fill="#66B933"/>
<path d="M378.598 33.7181L373.744 49.7176C373.345 49.4185 372.9 49.1875 372.426 49.034C371.597 48.7831 370.712 48.7836 369.884 49.0355C369.055 49.2874 368.32 49.7793 367.771 50.4492C367.222 51.119 366.884 51.9366 366.799 52.7986C366.715 53.6606 366.888 54.5282 367.297 55.2918C367.706 56.0553 368.332 56.6805 369.096 57.0882C369.86 57.4959 370.728 57.6679 371.59 57.5824C372.452 57.4968 373.269 57.1576 373.938 56.6077C374.607 56.0577 375.098 55.3217 375.349 54.4927L379.708 40.1575L395.291 40.7321L391.001 54.9484C390.605 54.6453 390.16 54.414 389.684 54.2648C388.855 54.0138 387.97 54.0144 387.141 54.2663C386.313 54.5182 385.577 55.0101 385.028 55.68C384.479 56.3498 384.141 57.1674 384.057 58.0294C383.973 58.8914 384.146 59.759 384.555 60.5226C384.963 61.2861 385.59 61.9113 386.354 62.319C387.118 62.7267 387.986 62.8987 388.847 62.8132C389.709 62.7276 390.526 62.3884 391.196 61.8385C391.865 61.2885 392.356 60.5525 392.606 59.7235L399.769 35.9471L378.598 33.7181Z" fill="#66B933"/>
<path d="M366.888 278.862L362.034 294.861C361.638 294.558 361.192 294.327 360.716 294.178C359.888 293.927 359.003 293.927 358.174 294.179C357.345 294.431 356.61 294.923 356.061 295.593C355.512 296.263 355.174 297.08 355.09 297.942C355.005 298.804 355.178 299.672 355.587 300.435C355.996 301.199 356.622 301.824 357.386 302.232C358.15 302.64 359.018 302.812 359.88 302.726C360.742 302.641 361.559 302.301 362.228 301.751C362.897 301.201 363.388 300.465 363.639 299.636L367.998 285.301L383.581 285.876L379.292 300.092C378.896 299.789 378.45 299.558 377.974 299.409C377.145 299.158 376.26 299.158 375.432 299.41C374.603 299.662 373.868 300.154 373.319 300.824C372.77 301.493 372.432 302.311 372.347 303.173C372.263 304.035 372.436 304.903 372.845 305.666C373.254 306.43 373.88 307.055 374.644 307.463C375.408 307.87 376.276 308.042 377.138 307.957C378 307.871 378.817 307.532 379.486 306.982C380.155 306.432 380.646 305.696 380.897 304.867L388.049 281.091L366.888 278.862Z" fill="#66B933"/>
<path d="M336.068 90.4543C337.048 89.9747 338.118 89.708 339.209 89.6717C340.667 89.6431 342.123 89.8097 343.538 90.167C345.413 90.6827 347.334 91.0145 349.274 91.1577C350.247 91.224 351.223 91.0933 352.144 90.7732C353.065 90.4532 353.912 89.9505 354.634 89.2952C353.498 89.4011 352.353 89.2487 351.285 88.8494C348.719 87.8587 346.659 85.2334 344.35 83.7672C340.913 81.5976 337.515 81.7859 333.334 82.836C333.334 86.3925 333.265 89.9689 333.225 93.5353L333.136 101.926C333.136 102.194 333.007 105.741 333.007 105.741C332.037 105.255 330.971 104.991 329.886 104.968C328.699 104.956 327.534 105.297 326.54 105.947C325.546 106.598 324.768 107.528 324.303 108.621C323.838 109.714 323.707 110.92 323.928 112.088C324.149 113.255 324.711 114.33 325.544 115.177C326.376 116.025 327.441 116.606 328.604 116.849C329.766 117.091 330.975 116.982 332.076 116.537C333.178 116.092 334.122 115.331 334.79 114.349C335.459 113.367 335.821 112.209 335.83 111.021L336.068 90.4543Z" fill="#66B933"/>
<path d="M433.036 240.572C434.112 240.381 435.216 240.422 436.275 240.691C437.682 241.071 439.034 241.63 440.298 242.355C441.959 243.37 443.714 244.222 445.538 244.901C446.456 245.232 447.43 245.375 448.404 245.32C449.378 245.266 450.33 245.015 451.205 244.584C450.083 244.375 449.023 243.914 448.104 243.237C445.915 241.602 444.667 238.482 442.854 236.431C440.159 233.39 436.85 232.617 432.531 232.468C431.54 235.896 430.49 239.304 429.469 242.722L427.062 250.766L425.873 254.382C425.077 253.648 424.125 253.103 423.09 252.787C421.953 252.442 420.74 252.442 419.603 252.786C418.466 253.131 417.457 253.805 416.704 254.723C415.95 255.641 415.486 256.762 415.37 257.945C415.254 259.127 415.491 260.317 416.051 261.364C416.612 262.411 417.47 263.269 418.518 263.828C419.566 264.387 420.756 264.623 421.938 264.506C423.12 264.388 424.241 263.923 425.158 263.168C426.076 262.414 426.749 261.404 427.092 260.267L433.036 240.572Z" fill="#66B933"/>
<path d="M291.121 26.9022C291.587 25.8145 292.279 24.8385 293.152 24.0392C294.329 22.9843 295.642 22.0914 297.055 21.3842C298.965 20.4743 300.783 19.3828 302.484 18.1248C303.33 17.492 304.04 16.6943 304.569 15.78C305.099 14.8657 305.437 13.8537 305.565 12.8049C304.705 13.6892 303.655 14.3667 302.494 14.7862C299.71 15.7769 296.134 15.0735 293.202 15.4995C288.833 16.1435 286.158 18.6895 283.473 22.5234C285.999 25.4955 288.427 28.4675 290.953 31.4396L296.828 38.3743C297.016 38.5923 299.413 41.6039 299.413 41.6039C298.277 41.9031 297.221 42.4513 296.322 43.2088C295.337 44.0407 294.621 45.146 294.264 46.385C293.907 47.6241 293.925 48.9411 294.317 50.1697C294.708 51.3982 295.456 52.483 296.464 53.2868C297.472 54.0906 298.696 54.5773 299.981 54.6855C301.266 54.7936 302.554 54.5182 303.682 53.8941C304.811 53.2701 305.729 52.3254 306.32 51.1796C306.911 50.0338 307.15 48.7384 307.005 47.4571C306.86 46.1758 306.338 44.9663 305.506 43.9816L291.121 26.9022Z" fill="#66B933"/>
<path d="M378.549 122.047L352.583 137.046C352.338 137.204 352.135 137.417 351.988 137.668C351.842 137.919 351.757 138.202 351.741 138.492V168.451C351.755 168.74 351.84 169.022 351.986 169.272C352.133 169.522 352.337 169.733 352.583 169.887L355.555 171.601C355.813 171.731 356.098 171.798 356.387 171.798C356.676 171.798 356.961 171.731 357.219 171.601L383.195 156.592C383.437 156.435 383.638 156.223 383.783 155.973C383.928 155.724 384.011 155.444 384.027 155.156V125.148C384.013 124.858 383.928 124.577 383.782 124.327C383.635 124.077 383.431 123.866 383.185 123.711L380.213 122.037C379.953 121.911 379.668 121.846 379.38 121.848C379.091 121.85 378.807 121.918 378.549 122.047Z" fill="#66B933"/>
<path d="M356.437 171.106V141.108C356.453 140.818 356.536 140.537 356.681 140.286C356.825 140.034 357.027 139.821 357.269 139.661L383.244 124.662C383.7 124.395 384.077 124.613 384.077 125.148V155.156C384.061 155.444 383.977 155.724 383.833 155.973C383.688 156.223 383.486 156.435 383.244 156.592L357.269 171.601C356.813 171.858 356.437 171.65 356.437 171.106Z" fill="#66B933"/>
<path d="M356.437 171.106V141.108C356.453 140.818 356.536 140.537 356.681 140.286C356.825 140.034 357.027 139.821 357.269 139.661L383.244 124.662C383.7 124.395 384.077 124.613 384.077 125.148V155.156C384.061 155.444 383.977 155.724 383.833 155.973C383.688 156.223 383.486 156.435 383.244 156.592L357.269 171.601C356.813 171.858 356.437 171.65 356.437 171.106Z" fill="#66B933"/>
<path opacity="0.2" d="M357.269 171.601C357.007 171.723 356.721 171.786 356.432 171.786C356.142 171.786 355.857 171.723 355.595 171.601L352.623 169.877C352.377 169.723 352.172 169.512 352.026 169.262C351.879 169.012 351.795 168.73 351.781 168.441V138.492C351.795 138.19 351.887 137.897 352.048 137.64L356.694 140.286C356.539 140.532 356.453 140.816 356.447 141.108V171.106C356.437 171.601 356.754 171.878 357.269 171.601Z" fill="black"/>
<path d="M380.431 142.168C380.431 149.717 375.844 158.494 370.177 161.763C364.511 165.033 359.914 161.565 359.914 154.006C359.914 146.448 364.511 137.68 370.177 134.411C375.844 131.142 380.431 134.609 380.431 142.168Z" fill="#FAFAFA"/>
<path d="M368.791 144.605V153.353C368.778 153.57 368.715 153.782 368.607 153.971C368.499 154.16 368.348 154.321 368.166 154.442L366.482 155.433C366.136 155.631 365.858 155.433 365.858 155.066V146.339C365.871 146.121 365.934 145.909 366.042 145.72C366.15 145.531 366.301 145.37 366.482 145.249L368.166 144.258C368.503 144.05 368.791 144.209 368.791 144.605Z" fill="#455A64"/>
<path d="M374.665 141.217V149.955C374.653 150.172 374.59 150.384 374.481 150.573C374.373 150.762 374.222 150.923 374.041 151.044L372.357 152.035C372.01 152.233 371.723 152.035 371.723 151.668V142.931C371.736 142.714 371.801 142.503 371.911 142.315C372.021 142.128 372.174 141.968 372.357 141.851L374.041 140.86C374.388 140.652 374.665 140.811 374.665 141.217Z" fill="#455A64"/>
<path d="M408.735 108.356L387.93 120.353C387.737 120.481 387.576 120.653 387.461 120.854C387.346 121.055 387.279 121.281 387.267 121.512V145.477C387.278 145.708 387.345 145.934 387.462 146.134C387.579 146.334 387.744 146.503 387.94 146.626L390.328 148.003C390.535 148.108 390.764 148.163 390.997 148.163C391.229 148.163 391.458 148.108 391.665 148.003L412.469 136.006C412.665 135.879 412.827 135.708 412.944 135.507C413.062 135.305 413.13 135.079 413.143 134.847V110.833C413.128 110.602 413.059 110.378 412.942 110.178C412.825 109.979 412.663 109.809 412.469 109.683L410.082 108.346C409.873 108.241 409.641 108.187 409.407 108.188C409.173 108.19 408.942 108.247 408.735 108.356Z" fill="#66B933"/>
<path d="M391.021 147.607V123.602C391.033 123.372 391.099 123.148 391.215 122.948C391.33 122.748 391.491 122.579 391.685 122.453L412.489 110.446C412.856 110.238 413.163 110.446 413.163 110.833V134.837C413.149 135.069 413.081 135.295 412.964 135.497C412.847 135.698 412.685 135.869 412.489 135.996L391.685 147.993C391.319 148.211 391.021 148.033 391.021 147.607Z" fill="#66B933"/>
<path d="M391.021 147.607V123.602C391.033 123.372 391.099 123.148 391.215 122.948C391.33 122.748 391.491 122.579 391.685 122.453L412.489 110.446C412.856 110.238 413.163 110.446 413.163 110.833V134.837C413.149 135.069 413.081 135.295 412.964 135.497C412.847 135.698 412.685 135.869 412.489 135.996L391.685 147.993C391.319 148.211 391.021 148.033 391.021 147.607Z" fill="#66B933"/>
<path opacity="0.2" d="M391.685 147.993C391.477 148.095 391.248 148.149 391.016 148.149C390.785 148.149 390.556 148.095 390.348 147.993L387.96 146.616C387.763 146.493 387.599 146.324 387.482 146.124C387.365 145.924 387.298 145.698 387.286 145.467V121.512C387.294 121.27 387.366 121.034 387.495 120.829L391.219 122.949C391.096 123.145 391.027 123.371 391.021 123.602V147.607C391.021 148.003 391.289 148.221 391.685 147.993Z" fill="black"/>
<path d="M407.982 121.423V130.161C407.971 130.379 407.909 130.591 407.8 130.78C407.692 130.97 407.54 131.131 407.358 131.251L405.674 132.241C405.327 132.439 405.04 132.241 405.04 131.885V123.137C405.053 122.92 405.118 122.709 405.228 122.521C405.338 122.334 405.491 122.175 405.674 122.057L407.358 121.066C407.704 120.858 407.982 121.017 407.982 121.423Z" fill="#455A64"/>
<path d="M396.163 128.338V136.897C396.163 137.541 396.5 137.66 396.926 137.185L404.851 128.051C405.277 127.565 405.099 127.179 404.455 127.179H397.371C397.215 127.172 397.059 127.197 396.913 127.252C396.766 127.308 396.633 127.392 396.52 127.5C396.407 127.609 396.317 127.739 396.256 127.883C396.194 128.027 396.163 128.181 396.163 128.338Z" fill="#455A64"/>
<path d="M342.785 146.438L321.981 158.435C321.785 158.561 321.622 158.732 321.505 158.933C321.388 159.135 321.32 159.361 321.307 159.594V183.558C321.321 183.79 321.389 184.014 321.506 184.214C321.623 184.414 321.786 184.583 321.981 184.708L324.368 186.085C324.576 186.19 324.805 186.245 325.037 186.245C325.269 186.245 325.499 186.19 325.706 186.085L346.51 174.088C346.704 173.96 346.865 173.789 346.981 173.587C347.096 173.386 347.162 173.16 347.174 172.928V148.914C347.163 148.683 347.096 148.457 346.978 148.257C346.861 148.057 346.697 147.888 346.5 147.765L344.113 146.428C343.906 146.326 343.678 146.273 343.448 146.275C343.217 146.277 342.99 146.332 342.785 146.438Z" fill="#66B933"/>
<path d="M325.052 185.688V161.684C325.064 161.454 325.13 161.229 325.245 161.03C325.361 160.83 325.522 160.66 325.716 160.535L346.52 148.528C346.887 148.32 347.184 148.528 347.184 148.914V172.918C347.172 173.15 347.106 173.376 346.991 173.577C346.875 173.779 346.714 173.95 346.52 174.078L325.716 186.075C325.369 186.293 325.052 186.114 325.052 185.688Z" fill="#66B933"/>
<path d="M325.052 185.688V161.684C325.064 161.454 325.13 161.229 325.245 161.03C325.361 160.83 325.522 160.66 325.716 160.535L346.52 148.528C346.887 148.32 347.184 148.528 347.184 148.914V172.918C347.172 173.15 347.106 173.376 346.991 173.577C346.875 173.779 346.714 173.95 346.52 174.078L325.716 186.075C325.369 186.293 325.052 186.114 325.052 185.688Z" fill="#66B933"/>
<path opacity="0.2" d="M325.736 186.075C325.528 186.177 325.299 186.23 325.067 186.23C324.835 186.23 324.606 186.177 324.398 186.075L322.011 184.698C321.816 184.573 321.653 184.404 321.536 184.204C321.419 184.004 321.351 183.78 321.337 183.549V159.594C321.348 159.351 321.424 159.115 321.555 158.91L325.27 161.03C325.146 161.226 325.078 161.452 325.072 161.684V185.688C325.052 186.085 325.349 186.303 325.736 186.075Z" fill="black"/>
<path d="M332.829 165.033V173.77C332.819 173.989 332.757 174.201 332.648 174.391C332.54 174.58 332.388 174.741 332.205 174.86L330.521 175.851C330.174 176.059 329.897 175.851 329.897 175.494V166.756C329.907 166.538 329.969 166.326 330.077 166.136C330.186 165.947 330.338 165.786 330.521 165.667L332.205 164.676C332.552 164.468 332.829 164.636 332.829 165.033Z" fill="#455A64"/>
<path d="M342.359 168.223V159.307C342.359 158.623 341.993 158.484 341.537 158.999L333.096 168.54C332.641 169.055 332.829 169.471 333.512 169.471H341.121C341.449 169.466 341.763 169.332 341.994 169.099C342.226 168.866 342.357 168.551 342.359 168.223Z" fill="#455A64"/>
<path d="M411.637 153.006L320.812 205.442C320.569 205.601 320.367 205.815 320.223 206.066C320.078 206.317 319.995 206.599 319.98 206.889V264.794C319.996 265.08 320.08 265.359 320.225 265.607C320.369 265.855 320.571 266.065 320.812 266.221L323.784 267.944C324.044 268.074 324.33 268.141 324.621 268.141C324.911 268.141 325.198 268.074 325.458 267.944L416.284 215.498C416.526 215.339 416.727 215.125 416.872 214.874C417.016 214.622 417.1 214.341 417.116 214.051V156.107C417.101 155.817 417.017 155.535 416.87 155.285C416.724 155.035 416.519 154.824 416.274 154.67L413.302 152.996C413.043 152.867 412.757 152.8 412.468 152.802C412.179 152.804 411.894 152.874 411.637 153.006Z" fill="#455A64"/>
<path d="M417.126 155.948C417.056 155.532 416.719 155.383 416.303 155.621L325.478 208.068C325.23 208.222 325.025 208.437 324.883 208.692L320.237 206.037C320.375 205.793 320.573 205.589 320.812 205.443L411.637 152.996C411.897 152.867 412.184 152.8 412.474 152.8C412.765 152.8 413.051 152.867 413.312 152.996L416.284 154.67C416.509 154.809 416.701 154.995 416.846 155.216C416.992 155.437 417.087 155.687 417.126 155.948Z" fill="#37474F"/>
<path d="M324.636 267.449V209.514C324.652 209.224 324.737 208.941 324.883 208.69C325.03 208.439 325.234 208.225 325.478 208.068L416.304 155.621C416.759 155.354 417.136 155.572 417.136 156.107V214.042C417.12 214.331 417.036 214.613 416.892 214.864C416.747 215.115 416.546 215.329 416.304 215.488L325.478 267.935C325.052 268.192 324.636 267.984 324.636 267.449Z" fill="#455A64"/>
<path opacity="0.2" d="M325.478 267.935C325.217 268.062 324.931 268.128 324.641 268.128C324.351 268.128 324.065 268.062 323.804 267.935L320.832 266.211C320.59 266.055 320.389 265.845 320.245 265.597C320.1 265.349 320.016 265.071 320 264.784V206.889C320.01 206.587 320.099 206.294 320.257 206.037L324.903 208.692C324.753 208.941 324.668 209.224 324.656 209.514V267.449C324.636 267.935 324.983 268.192 325.478 267.935Z" fill="#263238"/>
<path d="M413.133 181.012L408.893 183.449C407.15 184.44 404.108 186.352 402.365 185.877C400.898 185.48 399.769 183.509 397.748 184.678C396.47 185.411 395.053 189.938 392.567 191.375C390.08 192.811 388.604 188.759 387.802 186.669C386.999 184.579 385.582 180.666 382.62 182.37C379.658 184.074 378.123 190.067 376.24 194.466C374.358 198.864 371.911 203.124 368.89 204.868C365.323 206.929 362.866 205.928 361.192 206.899C359.518 207.87 358.111 210.941 356.239 212.714C354.574 214.329 352.008 215.884 350.532 214.695C349.056 213.507 347.996 210.455 346.51 211.307C345.024 212.159 343.825 217.093 342.419 219.56C341.012 222.027 339.447 223.522 335.296 225.91L327.43 230.447V231.012L330.818 229.031C332.512 228.04 334.899 226.762 336.494 227.436C338.089 228.109 338.159 228.724 339.565 227.911C340.972 227.099 341.547 225.93 342.537 224.335C343.19 223.108 344.124 222.052 345.262 221.254C346.252 220.649 347.61 221.254 348.432 222.046C349.254 222.839 350.057 223.701 351.275 223.037C352.548 222.095 353.535 220.82 354.128 219.352C354.921 217.806 355.357 216.588 356.229 216.073C357.19 215.629 358.278 215.538 359.3 215.815C360.956 216.084 362.653 215.731 364.065 214.824C366.126 213.635 368.523 211.535 371.535 206.166L376.102 203.521C379.43 201.609 381.729 200.489 383.254 200.846C385.156 201.282 387.772 204.947 390.615 203.293C393.458 201.638 394.291 197.349 395.697 194.515C396.812 191.825 398.859 189.627 401.463 188.324L413.094 181.607L413.133 181.012Z" fill="#66B933"/>
<path opacity="0.2" d="M387.802 203.431C386.088 202.778 384.532 201.113 383.294 200.826C381.768 200.469 379.47 201.589 376.141 203.501L371.614 206.146C374.249 201.42 376.756 194.02 377.697 191.088C378.103 189.839 378.559 188.591 379.094 187.373C379.63 186.061 380.336 184.825 381.194 183.697C382.67 182.162 383.78 181.993 384.493 183.776C385.206 185.56 384.681 190.87 384.81 195.377C384.939 199.885 386.127 202.421 387.802 203.431Z" fill="black"/>
<path opacity="0.2" d="M350.562 214.695C352.038 215.864 354.604 214.309 356.268 212.714C358.111 210.941 359.508 207.87 361.222 206.899C362.936 205.928 365.353 206.899 368.919 204.868C370.091 204.148 371.118 203.218 371.951 202.124C370.653 204.105 368.682 207.81 364.828 210.594C362.589 212.209 359.686 213.2 358.398 213.943C357.096 214.677 356.036 215.775 355.347 217.103C354.981 217.707 354.644 218.48 354.198 219.352C353.605 220.82 352.617 222.095 351.345 223.037C351.115 223.188 350.849 223.276 350.574 223.292C350.299 223.307 350.025 223.25 349.779 223.126C348.7 222.284 348.214 220.441 348.076 216.558C347.907 212.07 347.273 211.198 346.57 211.327C348.026 210.495 349.086 213.576 350.562 214.695Z" fill="black"/>
<path opacity="0.2" d="M384.77 195.377C384.641 190.87 385.176 185.56 384.453 183.776C383.968 182.568 383.304 182.261 382.472 182.657C383.73 182.488 384.84 184.48 384.106 189.384C383.7 192.098 382.502 197.19 383.116 200.796C383.185 200.791 383.255 200.791 383.324 200.796C384.562 201.084 386.118 202.778 387.831 203.402C386.127 202.421 384.899 199.895 384.77 195.377Z" fill="black"/>
<path opacity="0.2" d="M371.614 206.146L374.14 204.68C375.024 202.302 375.788 199.882 376.429 197.428C377.419 193.871 378.172 189.691 379.094 187.373C378.559 188.591 378.103 189.839 377.697 191.088C376.716 194.02 374.21 201.42 371.614 206.146Z" fill="black"/>
<path opacity="0.2" d="M396.629 189.225C395.876 191.553 395.529 194.119 394.35 197.864C394.816 196.675 395.242 195.486 395.737 194.496C396.852 191.805 398.899 189.607 401.503 188.304L405.317 186.104C401.641 188.225 400.056 186.6 399.175 186.104C398.293 185.609 397.372 186.897 396.629 189.225Z" fill="black"/>
<path opacity="0.2" d="M398.659 186.015C397.946 186.154 397.233 187.343 396.629 189.225C395.876 191.553 395.529 194.119 394.35 197.864C394.816 196.675 395.242 195.486 395.737 194.496C396.094 193.772 396.43 193.148 396.728 192.574C396.866 191.464 396.955 190.493 397.015 189.919C397.243 188.205 397.867 186.59 398.659 186.015Z" fill="black"/>
<path opacity="0.2" d="M368.89 204.888C365.323 206.948 362.866 205.948 361.192 206.919C360.91 207.086 360.65 207.289 360.419 207.523C361.549 206.532 363.391 207.275 364.808 207.523C366.243 207.681 367.691 207.364 368.929 206.621C370.001 205.194 370.993 203.709 371.901 202.173C371.072 203.255 370.051 204.175 368.89 204.888Z" fill="black"/>
<path opacity="0.2" d="M348.046 216.578C348.184 220.461 348.67 222.304 349.75 223.146C349.995 223.27 350.269 223.327 350.544 223.311C350.819 223.296 351.085 223.208 351.315 223.057C352.474 222.231 353.385 221.104 353.95 219.797C352.514 221.779 350.354 222.106 349.74 220.223C349.125 218.341 349.106 215.726 348.68 213.943C348.254 212.159 347.768 211.238 347.075 211.198H346.936H346.837H346.778H346.698L346.54 211.268C347.243 211.218 347.838 212.09 348.046 216.578Z" fill="black"/>
</svg>
