<svg width="57" height="57" viewBox="0 0 57 57" fill="none" xmlns="http://www.w3.org/2000/svg">
<g clip-path="url(#clip0_9_1133)">
<path d="M43.9692 55.0749H44.5857V55.1965H44.3472V55.9231H44.2105V55.1965H43.9692V55.0749Z" fill="#FF85C1"/>
<path d="M44.8212 55.0749H45.0597L45.2487 55.7407L45.4348 55.0749H45.6733V55.9231H45.5308V55.2254L45.3301 55.8883H45.1876L44.987 55.2254H44.9492V55.9231H44.8125L44.8212 55.0749Z" fill="#FF85C1"/>
<path d="M31.1739 15.7742C31.0082 17.0276 30.3364 19.6736 30.665 21.2744C31.0896 23.3356 32.6774 23.2256 33.2648 22.2095C33.6547 21.4162 33.7435 20.5095 33.5149 19.6562C33.1643 18.1492 32.3452 16.7907 31.1739 15.7742ZM32.5901 21.6652C32.3924 22.1081 31.7962 22.1081 31.5781 21.1239C31.3862 20.2554 31.6625 18.5735 31.7497 17.8353C32.1574 18.4548 32.4527 19.1406 32.6221 19.8617C32.7937 20.4524 32.7826 21.0809 32.5901 21.6652Z" fill="#FF85C1"/>
<path d="M30.6592 25.5125C29.7741 25.5722 28.9406 25.9485 28.3124 26.572C27.18 27.6261 26.4081 29.0071 26.1053 30.5206C27.2685 30.0372 29.9177 29.2903 31.1448 28.2047C32.7355 26.8123 31.834 25.5125 30.6592 25.5125ZM30.5603 27.5071C29.9031 28.1063 28.2979 28.7084 27.6116 29.0037C27.9474 28.3439 28.3962 27.7473 28.9377 27.2408C29.3677 26.7996 29.9208 26.4971 30.5254 26.3723C31.0082 26.3028 31.3048 26.8152 30.5603 27.4955V27.5071Z" fill="#FF85C1"/>
<path d="M56.872 1.41558C56.7982 1.29851 56.6988 1.19956 56.5812 1.12609C56.6239 0.931602 56.6017 0.728558 56.518 0.547772C56.4343 0.366985 56.2936 0.218326 56.1173 0.124353C55.941 0.0303805 55.7387 -0.00377512 55.5411 0.0270695C55.3435 0.0579142 55.1615 0.152075 55.0225 0.295263L54.5165 0.81634L53.554 1.19557C53.2343 1.08615 52.889 1.07406 52.5624 1.16083C52.4287 1.20135 52.286 1.20135 52.1523 1.16083C51.7057 1.05912 51.2391 1.08828 50.8088 1.24478C50.5195 1.23896 50.232 1.29012 49.9626 1.39531C49.5609 1.55309 49.2184 1.8313 48.9826 2.1914L48.8954 2.30141C47.5722 2.63721 46.9993 3.36672 46.7492 3.92833C46.6743 4.09946 46.6178 4.27801 46.5806 4.46098C46.3378 4.28051 46.0778 4.12439 45.8041 3.99491C44.2687 3.29435 42.2913 3.58673 40.8838 4.71863C39.3832 5.92579 38.7871 7.78719 39.2437 9.82228C39.4514 10.7 39.7937 11.5407 40.2585 12.3148C41.2996 14.1125 42.8758 15.7712 44.4025 17.375C45.746 18.7906 47.0197 20.128 47.7438 21.3815C47.7903 21.4597 47.8339 21.5378 47.8717 21.6131C48.8168 23.3992 48.6424 24.7135 47.3541 25.5183C46.941 25.7735 46.4762 25.9347 45.9932 25.9901C46.4497 24.6672 46.6475 22.8058 45.6471 21.0862C45.4488 20.7442 45.2149 20.424 44.9492 20.1309C43.0648 18.0756 41.0641 18.5329 40.2702 19.0627C40.0987 19.1769 39.971 19.3453 39.9076 19.5408C39.8443 19.7362 39.8491 19.9472 39.9212 20.1396C39.939 20.1875 39.9604 20.2339 39.9852 20.2786C40.0745 20.4315 40.2062 20.5554 40.3646 20.6356C40.523 20.7157 40.7013 20.7485 40.878 20.7302C41.7155 20.6288 42.6402 21.1818 43.1753 22.1081C43.4412 22.5565 43.5796 23.0685 43.5755 23.5892C43.5714 24.1098 43.425 24.6196 43.152 25.0638C42.6951 24.6893 42.2674 24.2809 41.8725 23.8421L41.7126 23.6713L41.6166 23.57C40.055 21.862 38.5225 20.8981 37.0481 20.6983C37.0167 19.4879 36.6839 18.3042 36.0797 17.2534C35.2912 15.8482 34.1839 14.6458 32.846 13.7419C32.6441 13.5995 32.4333 13.47 32.215 13.354C31.7032 9.50385 29.147 7.50639 26.8526 6.91873C25.5388 6.56821 24.1473 6.64107 22.8777 7.12684C21.6082 7.61261 20.5258 8.48631 19.7861 9.62254C19.6524 9.82228 19.5215 10.0336 19.3964 10.2507C18.2332 12.254 17.5673 14.593 16.9217 16.8423C16.3721 18.7616 15.869 20.5738 15.081 22.0386L14.9414 22.2876C14.4267 23.1734 13.973 23.6627 13.4874 23.819C13.3374 23.8677 13.1779 23.8795 13.0223 23.8532C12.8668 23.827 12.7201 23.7636 12.5946 23.6684C12.109 23.3384 12.2253 22.6639 12.6557 21.367C12.7811 21.0191 12.8831 20.6632 12.961 20.3017C13.0422 19.9145 13.0411 19.5146 12.958 19.1277C12.8749 18.7409 12.7115 18.3756 12.4783 18.0553C12.2508 17.7713 11.9661 17.5378 11.6426 17.3698C11.3191 17.2018 10.9638 17.103 10.5997 17.0797C9.86107 17.016 8.79382 17.2621 7.90688 18.7906C7.83127 18.9238 7.76729 19.0424 7.71786 19.1409C7.60647 18.7883 7.40854 18.4689 7.14197 18.2116C6.8754 17.9544 6.54861 17.7673 6.19115 17.6674C5.82278 17.3967 5.38554 17.2342 4.92907 17.1984C4.78623 17.1903 4.64794 17.1454 4.52777 17.0681C4.21788 16.8787 3.85462 16.7944 3.49251 16.8279L2.71898 16.2199L2.37583 15.5773C2.30004 15.4317 2.18631 15.309 2.04657 15.2222C1.90683 15.1354 1.7462 15.0875 1.58151 15.0837C1.41681 15.0798 1.25411 15.1201 1.11043 15.2003C0.966746 15.2805 0.847369 15.3977 0.764794 15.5396C0.695162 15.6623 0.653466 15.7987 0.642657 15.9391C0.423504 16.008 0.237939 16.1555 0.122122 16.3531C0.0623278 16.4598 0.02289 16.5766 0.00580179 16.6976C-0.0212187 16.9199 0.0346057 17.1443 0.162699 17.3284C0.290792 17.5125 0.482256 17.6434 0.700817 17.6963L1.42201 17.8729L2.23625 18.5098C2.30398 18.8379 2.46556 19.1395 2.70153 19.3782C2.80342 19.4704 2.87617 19.5901 2.91091 19.7227C3.04488 20.1633 3.3033 20.5562 3.65536 20.8546C3.79548 21.1053 3.98312 21.3265 4.20788 21.506C4.54852 21.7758 4.96543 21.9327 5.40017 21.9547L5.53975 21.9749C6.49358 22.9447 7.41252 23.075 8.02611 23.0084C8.21231 22.9882 8.39568 22.9475 8.57281 22.8868C8.5392 23.1868 8.53433 23.4892 8.55828 23.79C8.71531 25.4633 9.95703 27.0236 11.6495 27.6721C13.4466 28.361 15.3659 27.9615 16.9072 26.5344C17.5671 25.9164 18.1272 25.2006 18.5677 24.4124C19.6087 22.6176 20.2659 20.4262 20.8941 18.31C21.4524 16.4429 21.9759 14.677 22.7058 13.4264L22.8424 13.2006C23.9271 11.4926 25.1689 10.986 26.5007 11.6953C26.9309 11.9204 27.3038 12.2402 27.5912 12.6303C26.2128 12.8995 24.5 13.6435 23.4997 15.3804C23.2995 15.7268 23.1376 16.0936 23.0169 16.4747C22.1707 19.1293 23.5695 20.6259 24.4273 21.0457C24.6129 21.137 24.824 21.1633 25.0264 21.1203C25.2289 21.0773 25.4108 20.9675 25.5427 20.8087C25.6747 20.6499 25.7489 20.4514 25.7533 20.2453C25.7578 20.0393 25.6922 19.8378 25.5673 19.6735C25.0584 19.0048 25.0787 17.9366 25.6167 17.0045C25.8753 16.5532 26.2521 16.1803 26.7069 15.9254C27.1616 15.6705 27.6773 15.5432 28.199 15.557C28.106 16.1346 27.9699 16.7046 27.7919 17.2621C27.7657 17.3403 27.7425 17.4155 27.7221 17.485C27.7017 17.5545 27.6988 17.5632 27.6814 17.6182C26.9776 19.8212 26.9049 21.6218 27.4662 22.9939C26.4302 23.6273 25.5672 24.5053 24.9537 25.5501C24.1272 26.9337 23.6354 28.4897 23.5171 30.0951C23.5031 30.339 23.5031 30.5835 23.5171 30.8275C20.4172 33.1984 19.9548 36.4001 20.6091 38.6726C20.9602 39.9806 21.7187 41.1441 22.7757 41.9961C23.8327 42.848 25.1338 43.3446 26.492 43.4144C26.7334 43.4144 26.9835 43.4346 27.2335 43.4346C29.56 43.4346 31.9184 42.8557 34.2128 42.2767C36.1582 41.7903 37.9932 41.3329 39.6479 41.2722H39.9387C40.9681 41.2722 41.6224 41.4198 41.9975 41.7556C42.115 41.8605 42.2052 41.9922 42.2604 42.1395C42.3156 42.2867 42.3342 42.445 42.3145 42.6009C42.268 43.1799 41.6224 43.4202 40.2789 43.6981C39.9142 43.7642 39.5546 43.8561 39.2029 43.9731C38.8254 44.096 38.478 44.2963 38.183 44.5611C37.888 44.8258 37.652 45.1492 37.4901 45.5102C37.3555 45.8481 37.2939 46.2104 37.3094 46.5735C37.325 46.9367 37.4173 47.2925 37.5803 47.6177C37.8943 48.2864 38.6417 49.0825 40.4156 49.0825C40.5697 49.0825 40.7064 49.0825 40.814 49.0825C40.5057 49.4151 40.3033 49.8311 40.2324 50.2781C40.1909 50.568 40.2077 50.8632 40.2818 51.1466C40.2283 51.5995 40.305 52.0582 40.5028 52.4695C40.5729 52.5959 40.6061 52.7393 40.5988 52.8835C40.5954 53.2414 40.7064 53.5912 40.9158 53.8822L40.7733 54.8549L40.3749 55.4773C40.2863 55.6155 40.2366 55.7748 40.2311 55.9387C40.2255 56.1025 40.2643 56.2648 40.3434 56.4086C40.4225 56.5524 40.5389 56.6724 40.6805 56.7561C40.8221 56.8398 40.9837 56.884 41.1484 56.8842C41.2897 56.8842 41.4291 56.8515 41.5555 56.7887C41.7248 56.9449 41.947 57.0317 42.1778 57.0318C42.2998 57.0318 42.4205 57.0072 42.5326 56.9595C42.7408 56.8725 42.9095 56.7123 43.0065 56.5094C43.1036 56.3065 43.1223 56.0751 43.059 55.8594L42.8496 55.1502L42.9979 54.1283C43.2525 53.9073 43.4357 53.6162 43.5243 53.2917C43.5551 53.1561 43.6248 53.0324 43.7249 52.9356C44.036 52.6005 44.244 52.1835 44.324 51.7342C44.4723 51.4872 44.5711 51.2139 44.6148 50.9294C44.677 50.5045 44.6059 50.0707 44.4112 49.6875C44.3937 49.647 44.3734 49.5978 44.3589 49.5544C44.7253 48.2488 44.3792 47.389 44.0157 46.894C43.905 46.7428 43.7772 46.6049 43.6348 46.4829C43.9131 46.3633 44.179 46.2169 44.4286 46.0458C45.807 45.0731 46.5428 43.2204 46.2607 41.4401C45.9699 39.5439 44.6409 38.0994 42.6402 37.4741C41.7728 37.2149 40.8704 37.0899 39.9648 37.1035C37.8827 37.1035 35.6493 37.6333 33.4916 38.1457C31.5868 38.5973 29.7868 39.0142 28.3357 39.0142H28.0711C26.0354 38.9331 24.9886 38.1254 24.9333 36.6143C24.9153 36.1304 25.0067 35.6486 25.2008 35.2045C26.1256 36.2582 27.6378 37.3583 29.6385 37.3583C30.0404 37.3578 30.4411 37.3141 30.8337 37.228C33.5643 36.6288 34.1663 34.6776 34.1052 33.7281C34.0899 33.5236 34.006 33.3301 33.8669 33.1787C33.7278 33.0274 33.5417 32.9269 33.3384 32.8935C33.1351 32.8601 32.9264 32.8957 32.7459 32.9946C32.5654 33.0934 32.4235 33.2498 32.3429 33.4386C32.0114 34.2116 31.0692 34.7297 29.9933 34.7297C29.4706 34.7339 28.9567 34.5969 28.506 34.3334C28.0554 34.0698 27.685 33.6896 27.4342 33.2331C27.9889 33.0256 28.5586 32.8601 29.1383 32.7381L29.3651 32.686L29.5018 32.657C31.7701 32.162 33.3724 31.3225 34.2855 30.153C35.3572 30.7311 36.5562 31.0355 37.7751 31.0388C39.3922 31.062 40.9924 30.7091 42.4483 30.0082C42.6699 29.9014 42.8854 29.7826 43.0939 29.6521C46.7056 31.143 49.7212 29.9416 51.3788 28.251C52.3407 27.2858 52.9688 26.0408 53.1722 24.6964C53.3756 23.3519 53.1437 21.978 52.51 20.7736C52.4024 20.5594 52.2832 20.3393 52.1581 20.1251C50.9949 18.1219 49.3025 16.3792 47.6624 14.6943C46.2665 13.2469 44.9492 11.9095 44.071 10.5142C44.0186 10.4331 43.9692 10.3491 43.9226 10.271C43.4079 9.38226 43.2102 8.74539 43.3149 8.24458C43.3481 8.09054 43.4183 7.94683 43.5196 7.82581C43.6209 7.70479 43.7503 7.61007 43.8965 7.54981C44.4257 7.29506 44.955 7.73508 45.8681 8.75407C46.1083 9.03321 46.3667 9.29625 46.6416 9.54148C46.938 9.80598 47.2868 10.0057 47.6654 10.1279C48.0441 10.2501 48.4442 10.2919 48.8401 10.2507C49.201 10.1966 49.5466 10.068 49.8546 9.87304C50.1626 9.67811 50.4262 9.4212 50.6285 9.11883C51.0502 8.5138 51.3701 7.47165 50.4831 5.93447C50.4075 5.80131 50.3348 5.68841 50.2767 5.59577C50.718 5.68966 51.1774 5.65138 51.5969 5.48577C51.8671 5.37738 52.1131 5.21704 52.321 5.0139C52.7411 4.83385 53.1011 4.53869 53.3592 4.16281C53.4359 4.04007 53.5444 3.94009 53.6732 3.87332C53.9866 3.69815 54.236 3.42854 54.3857 3.10329L55.2988 2.73853L56.0403 2.77327C56.268 2.78355 56.4914 2.70926 56.6671 2.56483C56.8428 2.4204 56.9583 2.21612 56.9913 1.99166C57.0174 1.79176 56.9755 1.5889 56.872 1.41558ZM55.1272 1.83244L53.5656 2.45484C53.5808 2.58715 53.5532 2.72084 53.4868 2.83643C53.4204 2.95203 53.3186 3.04349 53.1963 3.0975C52.446 3.53462 52.7252 3.86464 51.8063 4.25545C51.6173 4.33361 51.7772 4.41177 51.1985 4.6781C50.7943 4.86337 50.1894 4.6202 49.8812 4.6781C49.5729 4.73599 48.8575 5.11812 49.3955 5.96052C49.6369 6.33975 50.5587 7.60481 49.8579 8.60354C49.2501 9.472 48.1887 9.65438 47.2174 8.84671C46.345 8.1172 45.112 5.95184 43.4835 6.73056C41.794 7.54112 42.2883 9.417 43.2829 10.9976C45.3854 14.3325 49.73 17.3171 51.6812 21.1818C54.0745 25.9207 49.0437 31.4643 42.9368 28.5724C42.6413 28.7968 42.3237 28.9907 41.9888 29.1513C39.3716 30.4135 35.9663 30.5061 33.9482 28.8155C33.006 31.0475 29.6763 31.6264 29.1034 31.7625C28.0907 31.9465 27.1108 32.2781 26.1954 32.7468C27.3586 36.5738 32.0812 36.2003 33.1223 33.76C33.1223 33.76 33.2531 35.7227 30.5719 36.3074C27.7686 36.927 25.7563 34.7761 25.1485 33.5602C24.7607 33.9682 24.4582 34.4487 24.2586 34.974C24.0589 35.4993 23.966 36.0588 23.9853 36.6201C24.0464 38.2586 25.0787 39.7871 28.0042 39.9029C31.9707 40.0563 38.1357 37.008 42.3378 38.3136C46.1182 39.4947 46.0513 43.727 43.8674 45.2613C43.1462 45.7708 41.8114 46.1297 40.9419 46.1761C40.5028 46.1992 40.4767 46.4019 40.5145 46.5177C40.5523 46.6335 40.8053 46.6798 41.1804 46.6421C42.5733 46.509 44.0681 47.3166 43.405 49.4038C43.3003 49.731 43.7772 50.2723 43.6958 50.7065C43.5679 51.3289 43.4574 51.1929 43.4254 51.3926C43.2567 52.374 42.8438 52.1713 42.6169 53.0051C42.5965 53.1277 42.5391 53.2412 42.4524 53.3306C42.3656 53.4201 42.2537 53.4812 42.1313 53.5059L41.8899 55.1791L42.1546 56.0794L41.7038 55.3296L41.1077 55.9434L41.6137 55.1531L41.855 53.4943C41.7314 53.4422 41.6278 53.3519 41.5597 53.2367C41.4917 53.1214 41.4626 52.9874 41.477 52.8545C41.477 51.9861 41.0466 52.0642 41.1688 51.0771C41.1949 50.8773 41.0495 50.9758 41.1077 50.3447C41.1455 49.9047 41.6602 49.5052 41.7591 49.2041C41.858 48.903 41.887 48.104 40.8867 48.1446C40.4359 48.1619 38.8743 48.3241 38.3567 47.224C37.9031 46.2629 38.2782 45.2584 39.4647 44.8242C40.5348 44.4334 43.0357 44.4594 43.1724 42.6646C43.312 40.8003 41.4276 40.2908 39.5606 40.3487C35.6086 40.4934 30.8366 42.7485 26.5007 42.4967C21.1849 42.1898 18.873 35.0829 24.4448 31.2617C24.398 30.8959 24.3892 30.5263 24.4186 30.1587C24.6309 27.2639 26.2506 24.2879 28.7312 23.3934C27.2597 21.4655 28.42 18.3043 28.5887 17.7455C28.9273 16.7821 29.1233 15.7748 29.1703 14.7551C25.259 13.8433 23.2234 18.1045 24.8083 20.2207C24.8083 20.2207 23.0373 19.3522 23.869 16.7468C24.7414 13.9967 27.6116 13.3424 28.9842 13.4235C28.8256 12.8859 28.5615 12.3849 28.2071 11.9496C27.8527 11.5143 27.415 11.1533 26.9195 10.8876C25.4655 10.1205 23.6189 10.2478 22.0544 12.7114C19.9402 16.052 19.5244 22.9071 16.282 25.8599C13.3739 28.5289 9.71566 26.3578 9.46558 23.7032C9.38415 22.8347 9.75638 21.4973 10.1344 20.7273C10.3351 20.3336 10.1722 20.212 10.053 20.1859C9.89015 20.1483 9.76219 20.3509 9.61098 20.6983C9.02937 21.9663 7.57537 22.8521 6.09519 21.2339C5.86254 20.982 5.15299 21.1181 4.82148 20.8257C4.34165 20.403 4.51613 20.377 4.3591 20.2467C3.59138 19.6098 3.96652 19.3783 3.36165 18.7443C3.26513 18.6655 3.19504 18.5592 3.16075 18.4398C3.12645 18.3203 3.12959 18.1932 3.16972 18.0756L1.83204 17.0305L0.918919 16.8076H1.79132L1.56159 15.997L1.99488 16.8279L3.31803 17.8642C3.42609 17.7857 3.55644 17.7433 3.69026 17.7433C3.82407 17.7433 3.95443 17.7857 4.06248 17.8642C4.81566 18.2956 4.96397 17.8874 5.76367 18.4866C5.92361 18.6082 5.91198 18.4316 6.43252 18.7993C6.79602 19.054 6.88617 19.6967 7.09554 19.9312C7.30492 20.1657 7.99121 20.5941 8.45649 19.7083C8.66587 19.3117 9.30564 17.8845 10.5212 17.9887C11.5855 18.0785 12.266 18.9035 12.0537 20.1425C11.8589 21.2628 10.5997 23.405 12.0828 24.4182C13.6299 25.472 15.0141 24.1085 15.8923 22.4584C17.7418 18.9845 18.1664 13.7419 20.5451 10.1262C23.4706 5.69709 30.8104 7.26032 31.3455 13.9706C31.6917 14.1172 32.0221 14.2986 32.3313 14.512C34.742 16.1418 36.5188 19.0251 36.0565 21.6102C38.473 21.3207 40.6424 23.8885 41.0437 24.314C41.7088 25.0904 42.4848 25.7653 43.3469 26.3173C46.0978 23.4021 43.4079 19.5143 40.7675 19.8356C40.7675 19.8356 42.4076 18.7443 44.2571 20.762C46.2113 22.8955 45.3476 25.6833 44.5915 26.8412C45.1445 26.973 45.7185 26.993 46.2794 26.9C46.8404 26.807 47.3769 26.6029 47.8572 26.2999C49.2501 25.4314 50.0644 23.7756 48.7005 21.1962C46.8365 17.6963 41.099 13.9098 40.1393 9.63122C39.2669 5.78394 42.9892 3.72279 45.4232 4.83731C46.2258 5.20207 47.2029 6.17474 47.6798 6.90136C47.9212 7.26901 48.1073 7.19084 48.1916 7.1011C48.2759 7.01136 48.1916 6.77398 47.9648 6.46134C47.1535 5.32944 47.1098 3.63594 49.2589 3.16408C49.5933 3.09171 49.8405 2.40852 50.2505 2.27246C50.8554 2.06692 50.7914 2.23193 50.9833 2.15956C51.9284 1.81507 51.9459 2.26378 52.8008 2.06403C52.9179 2.02088 53.0453 2.01411 53.1663 2.0446C53.2873 2.0751 53.3961 2.14143 53.4784 2.23483L55.0545 1.60374L55.7088 0.906081L55.261 1.65875L56.0956 1.86718L55.1272 1.83244Z" fill="#FF85C1"/>
<path d="M34.8264 26.0915C35.3208 26.8254 36.0657 27.3561 36.9231 27.5852C38.4052 28.0358 39.9921 28.0115 41.4596 27.5157C40.4534 26.7457 38.4847 24.8438 36.9318 24.3314C34.934 23.6627 34.2361 25.0869 34.8264 26.0915ZM37.1906 26.711C36.5956 26.5678 36.057 26.2513 35.6436 25.802C35.3528 25.4112 35.6436 24.8959 36.6206 25.1998C37.4669 25.4662 38.7958 26.5489 39.3949 26.9918C38.6498 27.0312 37.9035 26.9391 37.1906 26.7197V26.711Z" fill="#FF85C1"/>
</g>
<defs>
<clipPath id="clip0_9_1133">
<rect width="57" height="57" fill="white"/>
</clipPath>
</defs>
</svg>
